<?xml version="1.0" encoding="UTF-8"?>
<svg width="512pt" height="512pt" version="1.1" viewBox="0 0 512 512" xmlns="http://www.w3.org/2000/svg">
 <path d="m416 144h-320c-4.8008 0-8 3.1992-8 8v208c0 4.8008 3.1992 8 8 8h320c4.8008 0 8-3.1992 8-8v-208c0-4.8008-3.1992-8-8-8zm-160 118.4-136-102.4h272zm-53.602-20-98.402 98.402v-172.8zm13.602 9.6016 35.199 26.398c1.6016 0.80078 3.1992 1.6016 4.8008 1.6016s3.1992-0.80078 4.8008-1.6016l35.199-26.398 100.8 100h-281.6zm93.598-9.6016 98.402-74.398v172.8z"/>
</svg>
