<?xml version="1.0" encoding="UTF-8"?>
<svg width="512pt" height="512pt" version="1.1" viewBox="0 0 512 512" xmlns="http://www.w3.org/2000/svg">
 <path d="m466.48 220.46h-68.617l15.199 15.199c2.6211 2.6211 2.6211 6.8984 0 9.5195-1.3203 1.3203-3.0391 1.9805-4.7617 1.9805-1.7188 0-3.4414-0.66016-4.7617-1.9805l-26.68-26.68c-2.6211-2.6211-2.6211-6.8789 0-9.5195l26.68-26.699c2.6211-2.6406 6.8984-2.6406 9.5195 0 2.6406 2.6211 2.6406 6.8984 0 9.5195l-15.199 15.219h68.617c3.7188 0 6.7383 3.0195 6.7383 6.7383s-3.0195 6.7383-6.7383 6.7383zm5.3008 66.879c-0.80078 3-3.5195 4.9805-6.5 4.9805-0.57812 0-1.1602-0.078124-1.7383-0.23828l-98.699-26.461 46.66 72.277c1.3398 2.0781 1.4414 4.6992 0.26172 6.8789-1.1797 2.1602-3.4414 3.5195-5.918 3.5195h-42.32v20.461c0 21.699-19.039 40.738-40.738 40.738h-11.141v43.738c0 3.7188-3.0195 6.7383-6.7383 6.7383h-211.4c-3.7188 0-6.7383-3.0195-6.7383-6.7383v-123.86c-30.539-29.922-47.98-71.617-47.98-114.9 0-89.578 72.879-162.48 162.48-162.48 29.301 0 56.656 6.6602 81.34 19.762 22.941 12.199 42.68 29.801 57.078 50.922 8.582 12.559 15.18 26.32 19.602 40.602l104.26-27.961c3.6016-0.96094 7.2812 1.1602 8.2383 4.7617 0.96094 3.5781-1.1602 7.2812-4.7617 8.2383l-104.36 27.98c0.73828 3.5391 1.3789 7.1016 1.8594 10.68 2.8398 21.461 0.82031 42.602-5.9805 63l108.5 29.078c3.5781 0.96094 5.7188 4.6602 4.7617 8.2383zm-281.32-73.602c0-3.0391 2.0391-5.7188 4.9805-6.5l74.762-20.039c-10.922-28.859-38.859-48.5-70.199-48.5-41.379 0-75.059 33.66-75.059 75.059 0 41.379 33.66 75.059 75.059 75.059 31.34 0 59.281-19.641 70.199-48.52l-74.762-20.039c-2.9414-0.78125-4.9805-3.4609-4.9805-6.5zm159.26-33.941-68.98 18.5c-0.058594 0.019531-0.10156 0.039063-0.14062 0.039063-0.058594 0.019531-0.14062 0.039062-0.19922 0.039062l-57.223 15.34 122.3 32.781c7.418-21.82 8.7812-44.641 4.2383-66.719z"/>
</svg>
