<?xml version="1.0" encoding="UTF-8"?>
<svg width="512pt" height="512pt" version="1.1" viewBox="0 0 512 512" xmlns="http://www.w3.org/2000/svg">
 <path d="m455.54 145.78c-7.9219-0.60156-15.922-0.89844-23.898-0.89844v-12.48c0-2.9805-2.2812-5.4609-5.2617-5.6797-6.8203-0.51953-13.719-0.78125-20.578-0.78125v-14.52c0-2.9609-2.2812-5.4414-5.2617-5.6602-50.98-3.8398-101.82 9.3398-144.54 37.441-42.719-28.121-93.559-41.281-144.54-37.441-2.9805 0.21875-5.2617 2.6992-5.2617 5.6602v14.539c-6.8594 0-13.762 0.26172-20.578 0.78125v-0.019532c-2.9805 0.23828-5.2617 2.6992-5.2617 5.6797v12.5c-7.9609 0-15.98 0.30078-23.898 0.89844-2.9609 0.21875-5.2383 2.6797-5.2617 5.6406v249.78c0 1.6992 0.76172 3.3008 2.0586 4.3789 1.3203 1.0781 3.0391 1.5195 4.6992 1.1992 65.164-12.602 131.52-17.719 197.84-15.301h0.42187-0.019531c66.32-2.4219 132.68 2.6992 197.84 15.301 0.33984 0.078125 0.69922 0.10156 1.0781 0.10156 3.1406 0 5.6797-2.5391 5.6797-5.6797v-249.78c0-2.9609-2.3008-5.4414-5.2617-5.6602zm-35.262-8.0586v226.98c-43.68-1.9805-87.438 0.82031-130.48 8.3594 34.281-16.059 72.121-23.02 109.88-20.199 1.5781 0.14062 3.1406-0.39844 4.3008-1.4805 1.1797-1.0781 1.8398-2.6016 1.8398-4.1797v-209.88c4.8008 0 9.6406 0.14062 14.461 0.39844zm-25.84-20.961-0.019531 224.38c-46.68-2.2617-92.938 9.6797-132.74 34.199v-222.26c39.238-25.98 85.762-38.699 132.74-36.32zm-276.86 0v0.019531c46.98-2.3984 93.5 10.32 132.74 36.301v222.26c-36.539-22.52-78.582-34.461-121.5-34.48-3.7617 0-7.5 0.10156-11.262 0.28125zm-25.859 20.961c4.8203-0.26172 9.6602-0.39844 14.461-0.39844l0.019531 209.88c0 1.5781 0.66016 3.1016 1.8203 4.1797 1.1797 1.0781 2.7383 1.6211 4.3203 1.4805 37.738-2.8203 75.602 4.1406 109.86 20.199-43.039-7.5586-86.801-10.359-130.46-8.3789zm-29.16 19.059c5.918-0.33984 11.859-0.51953 17.781-0.51953l0.019531 214.42c0 1.5781 0.64062 3.0586 1.7812 4.1406 1.1406 1.0781 2.6602 1.6406 4.2188 1.5586 35.5-1.9805 71.082-0.73828 106.36 3.7383-43.68 1.5195-87.18 6.3008-130.14 14.238zm386.84 237.56h0.019531c-42.961-7.9414-86.461-12.719-130.12-14.238 35.262-4.4805 70.859-5.7188 106.34-3.7383 1.5586 0.078125 3.0781-0.48047 4.2188-1.5586 1.1406-1.0781 1.7812-2.5586 1.7812-4.1406v-214.42c5.918 0 11.859 0.17969 17.781 0.51953zm-308.28-241.76c0.12109-1.5195 0.83984-2.9219 1.9805-3.8984 1.1602-0.98047 2.6602-1.4609 4.1602-1.3203 26.262 2.0586 51.941 8.6211 75.98 19.379 1.3789 0.62109 2.4609 1.7617 3 3.1602 0.53906 1.4219 0.5 2.9805-0.12109 4.3594-0.62109 1.3789-1.7617 2.4609-3.1797 3-1.4219 0.53906-2.9805 0.48047-4.3594-0.14062-22.84-10.219-47.281-16.461-72.238-18.422-1.5-0.12109-2.8984-0.83984-3.8789-1.9805-0.98047-1.1602-1.4609-2.6406-1.3398-4.1406zm144.76 21.699h0.019532c-1.3008-2.8789 0-6.2422 2.8594-7.5195 24.039-10.781 49.738-17.34 76-19.398 3.1211-0.21875 5.8203 2.1016 6.0586 5.2188 0.26172 3.1211-2.0586 5.8398-5.1602 6.1211-24.961 1.9609-49.398 8.1992-72.258 18.422-2.8594 1.3008-6.2188 0-7.5-2.8594zm-144.76 25.66c0.12109-1.5195 0.83984-2.9219 1.9805-3.8984 1.1602-0.98047 2.6602-1.4609 4.1602-1.3203 26.262 2.0781 51.941 8.6406 75.98 19.398 2.8594 1.2812 4.1406 4.6406 2.8594 7.5195-1.2812 2.8594-4.6406 4.1602-7.5195 2.8594-22.84-10.219-47.281-16.461-72.238-18.422-1.5195-0.12109-2.8984-0.83984-3.8789-2-0.98047-1.1406-1.4609-2.6406-1.3398-4.1406zm144.76 21.699h0.019532c-1.3008-2.8789 0-6.2422 2.8594-7.5195 24.039-10.781 49.738-17.34 76-19.398 1.5195-0.14062 3.0195 0.33984 4.1797 1.3203 1.1602 0.98047 1.8789 2.3789 2 3.8984s-0.37891 3-1.3789 4.1602c-0.98047 1.1406-2.3984 1.8594-3.8984 1.9609-24.961 1.9609-49.398 8.1992-72.258 18.441-1.3789 0.60156-2.9414 0.66016-4.3398 0.12109-1.4219-0.53906-2.5586-1.6211-3.1602-3zm-144.76 25.66c0.12109-1.5195 0.83984-2.9219 1.9805-3.8984 1.1602-0.98047 2.6602-1.4609 4.1602-1.3203 26.262 2.0781 51.941 8.6406 75.98 19.422 1.3789 0.62109 2.4609 1.7617 3 3.1602 0.53906 1.4219 0.5 2.9805-0.12109 4.3594-0.62109 1.3789-1.7617 2.4609-3.1797 3-1.4219 0.53906-2.9805 0.48047-4.3594-0.14062-22.84-10.238-47.281-16.461-72.238-18.422-1.5195-0.12109-2.9219-0.83984-3.8984-2-0.98047-1.1602-1.4414-2.6602-1.3203-4.1602zm144.76 21.699h0.019532c-1.3008-2.8789 0-6.2422 2.8594-7.5195 24.039-10.781 49.738-17.34 76-19.398 1.5195-0.14062 3.0195 0.33984 4.1797 1.3203 1.1602 0.98047 1.8789 2.3789 2 3.8984 0.12109 1.5-0.37891 3-1.3789 4.1602-0.98047 1.1406-2.3984 1.8398-3.8984 1.9609-24.961 1.9609-49.398 8.1992-72.258 18.422-1.3594 0.62109-2.9414 0.67969-4.3398 0.14062-1.4219-0.53906-2.5586-1.6211-3.1602-3zm-144.76 25.699c0.12109-1.5195 0.83984-2.9219 1.9805-3.8984 1.1602-0.98047 2.6602-1.4609 4.1602-1.3203 26.262 2.0586 51.941 8.6406 75.98 19.398 1.3789 0.62109 2.4609 1.7617 3 3.1602 0.53906 1.4219 0.5 2.9805-0.12109 4.3594-0.62109 1.3789-1.7617 2.4609-3.1797 3-1.4219 0.53906-2.9805 0.48047-4.3594-0.14062-22.84-10.238-47.281-16.461-72.238-18.422-1.5195-0.14062-2.8984-0.83984-3.8789-2-0.98047-1.1406-1.4609-2.6406-1.3398-4.1406zm229.76 0c0.12109 1.5-0.35937 3-1.3398 4.1602-0.98047 1.1406-2.3789 1.8594-3.8789 1.9805-24.961 1.9609-49.398 8.1992-72.258 18.441-1.3789 0.62109-2.9414 0.66016-4.3594 0.12109-1.3984-0.53906-2.5391-1.6016-3.1602-2.9805-0.62109-1.3789-0.66016-2.9609-0.12109-4.3594 0.53906-1.4219 1.6211-2.5586 3-3.1797 24.039-10.762 49.738-17.32 76-19.398 1.5-0.12109 3 0.35938 4.1406 1.3398 1.1406 0.98047 1.8594 2.3789 1.9805 3.8789z"/>
</svg>
