<?xml version="1.0" encoding="UTF-8"?>
<svg width="512pt" height="512pt" version="1.1" viewBox="0 0 512 512" xmlns="http://www.w3.org/2000/svg">
 <path d="m388 487.68c2.1016 5.0195 1.5781 10.301-1.4805 14.738-3.0195 4.5-7.6797 6.9609-13.059 6.9609h-163.94c-7.3789 0-13.559-4.8594-15.301-12.039l-8.8008-36.199c-57.801 11.781-98.82 9.7812-75.621-44.699-14.141-4.8203-18.738-19.359-2.9219-25.758-7.9805-2.3008-21.238-13.102-7.0195-25.398-13.82-0.39844-43.32-0.62109-23.762-32.301 39.84-51.102 29.602-64.977 32.059-92.422 6.5586-72.5 66.719-119.56 134.3-133.32-0.16016 2.1992-0.19922 4.3984-0.19922 6.6016v35.641c-1.1211 0.46094-2.2617 0.98047-3.3789 1.5391l-4.1406-2.1016c-8.0391-4.1016-17.719-2.5586-24.121 3.8398l-9.9805 9.9805c-6.3398 6.3398-7.9414 16.078-3.8398 24.121l2.1016 4.1016c-1.2812 2.7188-2.4609 5.4219-3.4414 8.2383l-4.3984 1.3789c-8.6016 2.8203-14.34 10.699-14.34 19.762v14.141c0 9.0195 5.7383 16.941 14.34 19.719l4.3984 1.4414c1.0195 2.8203 2.1602 5.5781 3.4414 8.2383l-2.1016 4.1406c-4.1016 8.0391-2.5586 17.719 3.8398 24.121l9.9805 9.9805c6.3984 6.3398 16.078 7.9414 24.121 3.8398l4.1406-2.1016c2.6602 1.2812 5.4219 2.4609 8.2383 3.4414l1.4414 4.3984c2.7617 8.6016 10.699 14.34 19.719 14.34h14.141c9.0195 0 16.941-5.7383 19.762-14.34l1.3789-4.3984c2.8203-0.98047 5.5781-2.1602 8.2383-3.4414l4.1016 2.1016c8.0391 4.1016 17.719 2.5586 24.121-3.8398l9.9805-9.9805c6.3398-6.3398 7.9414-16.078 3.8398-24.121l-2.1016-4.1406c1.2812-2.6602 2.3984-5.4219 3.3789-8.2383l4.3984-1.4414c8.5586-2.7617 14.34-10.699 14.34-19.719v-14.141c0-9.0195-5.7812-16.941-14.34-19.762l-4.3984-1.3789c-0.98047-2.8203-2.1602-5.5781-3.3789-8.2383l2.1016-4.1016c4.1016-8.0391 2.5586-17.719-3.8398-24.121l-9.9805-9.9805c-6.3398-6.3398-16.078-7.9414-24.121-3.8398l-4.1016 2.1016c-1.1211-0.51953-2.2617-1.0195-3.3789-1.5391v-35.641c0-3.1211 0.39844-6.1992 1.2188-9.1211 67.398 9.0391 127.14 54 132.78 142.98-3.0195 111.82-108.24 109.82-54.422 239.98zm-189.96-400.7c1.5391 1.5391 3.6797 1.9414 5.6406 1.1211 2-0.82031 3.2188-2.6602 3.2188-4.8203v-15.82c0-1.5391 0.55859-2.8203 1.6797-3.8398 1.1211-1.0195 2.5-1.4805 4.0391-1.2812 14.02 1.5781 26.422 8.8008 34.82 19.301 3.7383-11.16 9.3594-21.398 16.539-30.461-13.98-12.738-32.199-20.879-52.18-22.02-2.7617-0.16016-4.8594-2.4609-4.8594-5.1797l0.019531-16.199c0-2.1602-1.2188-4-3.2188-4.8203-1.9414-0.82031-4.1406-0.39844-5.6406 1.1211l-37.84 37.801c-2 2-2 5.3203 0 7.3789zm60.719 44.199c2.8594-1.4805 6.0391-2.2617 9.418-2.2617h14.141c3.3789 0 6.6016 0.82031 9.418 2.2617v-17.262c0-26.621 20.281-48.641 46.141-51.559 1.5391-0.16016 2.8594 0.26172 4 1.2812 1.1211 1.0195 1.7383 2.3008 1.7383 3.8398v15.82c0 2.1602 1.2188 4 3.1797 4.8203 2 0.82031 4.1406 0.39844 5.6797-1.1211l37.781-37.781c2-2 2-5.3203 0-7.3789l-37.738-37.738c-1.5391-1.5391-3.6797-1.9414-5.6797-1.1211-1.9414 0.82031-3.1797 2.6602-3.1797 4.8203v16.238c0 2.7617-2.1602 5.0195-4.8594 5.1797-44.5 2.5586-80.02 39.621-80.02 84.742zm75.219 58c-0.66016 1.3398-0.62109 2.7617 0.10156 4 3.0781 5.2188 5.4219 10.898 7.0195 16.898 0.35938 1.4414 1.3398 2.4609 2.7617 2.9219l10.5 3.4414c1.7383 0.55859 2.8594 2.1016 2.8594 3.9414v14.141c0 1.8398-1.1211 3.3789-2.8594 3.9414l-10.5 3.4414c-1.3789 0.46094-2.3984 1.4805-2.7617 2.8594-1.5781 6-3.9414 11.68-7.0195 16.941-0.71875 1.2812-0.76172 2.7188-0.10156 4l5.0195 9.8398c0.82031 1.6406 0.51953 3.5391-0.76172 4.8594l-9.9805 9.9805c-1.2812 1.2812-3.1797 1.5781-4.8203 0.76172l-9.8398-5.0195c-1.3398-0.66016-2.7617-0.62109-4 0.10156-5.2188 3.0781-10.898 5.4219-16.898 7.0195-1.4414 0.39844-2.4609 1.3789-2.9219 2.7617l-3.4414 10.5c-0.55859 1.8008-2.1016 2.8594-3.9414 2.8594h-14.141c-1.8398 0-3.3789-1.1211-3.9414-2.8594l-3.4414-10.5c-0.46094-1.3789-1.4805-2.3594-2.8594-2.7617-6-1.5781-11.68-3.9414-16.941-7.0195-1.2812-0.71875-2.7188-0.76172-4-0.10156l-9.8398 5.0195c-1.6406 0.82031-3.5391 0.51953-4.8594-0.76172l-9.9805-9.9805c-1.2812-1.3398-1.5781-3.1797-0.76172-4.8594l5.0195-9.8398c0.66016-1.2812 0.62109-2.7188-0.10156-4-3.0781-5.2188-5.4219-10.898-7.0195-16.941-0.39844-1.3789-1.3789-2.4609-2.7617-2.8594l-10.5-3.4414c-1.8008-0.55859-2.8594-2.1602-2.8594-3.9414v-14.141c0-1.8398 1.1211-3.3789 2.8594-3.9414l10.5-3.4414c1.3789-0.46094 2.3594-1.4805 2.7617-2.9219 1.5781-6 3.9414-11.68 7.0195-16.898 0.71875-1.2812 0.76172-2.7188 0.10156-4l-5.0195-9.8398c-0.82031-1.6406-0.51953-3.5391 0.76172-4.8203l9.9805-9.9805c1.3398-1.3398 3.2188-1.5781 4.8594-0.76172l9.8398 5.0195c1.2812 0.66016 2.7188 0.62109 4-0.10156 5.2188-3.0781 10.898-5.4219 16.941-7.0195 1.3789-0.35938 2.4609-1.3398 2.8594-2.7617l3.4414-10.5c0.55859-1.7383 2.1602-2.8594 3.9414-2.8594h14.141c1.8398 0 3.3789 1.1211 3.9414 2.8594l3.4414 10.5c0.46094 1.3789 1.4805 2.3984 2.9219 2.7617 6 1.5781 11.68 3.9414 16.898 7.0195 1.2812 0.71875 2.7188 0.76172 4 0.10156l9.8398-5.0195c1.6406-0.82031 3.5391-0.51953 4.8203 0.76172l9.9805 9.9805c1.3398 1.2812 1.5781 3.1797 0.76172 4.8203zm-18.801 38.301c0-11-4.4609-21.039-11.68-28.219-7.2188-7.2188-17.199-11.68-28.219-11.68-11 0-21 4.4609-28.219 11.68s-11.719 17.199-11.719 28.219c0 11 4.4609 21 11.719 28.219 7.2188 7.2188 17.199 11.719 28.219 11.719 11 0 21.039-4.4609 28.219-11.719 7.2383-7.2188 11.68-17.219 11.68-28.219zm-39.922-23.301c-6.4609 0-12.281 2.6211-16.48 6.8008-4.2383 4.1992-6.8594 10.039-6.8594 16.48 0 6.4609 2.6211 12.281 6.8594 16.48 4.1992 4.2383 10.039 6.8594 16.48 6.8594 6.4609 0 12.281-2.6211 16.48-6.8594 4.1992-4.1992 6.8008-10.039 6.8008-16.48 0-6.4609-2.6211-12.281-6.8008-16.48-4.1992-4.2383-10.039-6.8008-16.48-6.8008z"/>
</svg>
