<?xml version="1.0" encoding="UTF-8"?>
<svg width="512pt" height="512pt" version="1.1" viewBox="0 0 512 512" xmlns="http://www.w3.org/2000/svg">
 <path d="m292.42 307.32v-157.6c0-8.7617 7.1016-15.859 15.859-15.879h130.34c1.7617 0 3.4219 0.76172 4.5586 2.0781l56.738 56.656h-0.019531c1.3398 1.1406 2.1016 2.8008 2.1016 4.5586v213.4c-0.019532 8.7617-7.1211 15.859-15.879 15.879h-124.34v63.023c-0.039063 6.9219-5.6406 12.52-12.559 12.559h-249.4c-3.3203 0-6.5195-1.3398-8.8594-3.6992l-0.019532 0.019531c-2.3594-2.3594-3.6797-5.5586-3.6797-8.8789v-194.5c0.019531-6.9219 5.6406-12.539 12.559-12.559h80.02c6.9414 0.019532 12.539 5.6406 12.539 12.559h0.019532v11.82l0.55859 0.55859zm-164.38-297.32c-6.7188 0.019531-12.16 5.4609-12.18 12.199v17.559c-10.539 2.5195-20.602 6.6992-29.82 12.359l-12.441-12.422c-4.7617-4.7617-12.48-4.7617-17.238 0l-16.66 16.66c-4.7617 4.7617-4.7617 12.48 0 17.238l12.441 12.441h-0.019531c-2.8398 4.6016-5.3008 9.418-7.3594 14.422-2.0586 5-3.7383 10.141-5 15.398h-17.559c-6.7383 0-12.199 5.4609-12.199 12.18v23.582c0.019532 6.7383 5.4609 12.18 12.199 12.199h17.559c2.5195 10.52 6.6797 20.602 12.359 29.82l-12.441 12.441 0.019531 0.019531v-0.019531c-4.7383 4.7617-4.7617 12.461 0 17.219l16.68 16.68h-0.019531c4.7617 4.7383 12.48 4.7383 17.238 0l12.441-12.441c9.2188 5.6797 19.281 9.8398 29.82 12.359v17.578c0 3.2188 1.2812 6.3203 3.5781 8.6016l0.019531-0.019531-0.019531 0.019531c2.2812 2.2812 5.3789 3.5781 8.6016 3.5781h23.582c6.7188-0.019532 12.16-5.4609 12.199-12.18v-17.578c10.52-2.5195 20.578-6.6797 29.82-12.359l12.441 12.441h-0.019531c4.7617 4.7383 12.48 4.7383 17.238 0l16.68-16.68c4.7383-4.7617 4.7383-12.48 0-17.238l-12.441-12.441v0.019531c5.6797-9.2188 9.8398-19.301 12.359-29.82h17.578c6.7188-0.019531 12.18-5.4609 12.18-12.199v-23.582c0-6.7188-5.4609-12.18-12.18-12.18h-17.578c-2.5195-10.539-6.6797-20.602-12.359-29.82l12.441-12.441c4.7383-4.7617 4.7383-12.48 0-17.238l-16.68-16.68v0.019531c-4.7617-4.7617-12.48-4.7617-17.238 0l-12.422 12.422c-9.2188-5.6602-19.301-9.8398-29.82-12.359v-17.559c0-3.2383-1.3008-6.3398-3.5781-8.6211l-0.019532 0.019531v-0.019531c-2.2812-2.2812-5.3594-3.5781-8.6016-3.5781zm23.582 12-23.699 0.058594-0.058594 22.539h-0.019531c0 2.8789-2.0586 5.3594-4.8789 5.8789-12.199 2.3008-23.781 7.0781-34.059 14.039-2.3789 1.8594-5.7812 1.6602-7.9219-0.48047l-15.98-15.898-16.879 16.84 15.898 16c2.0391 2.0391 2.3398 5.2383 0.71875 7.6211v-0.019531c-3.5391 5.1797-6.5195 10.699-8.9219 16.48h-0.019531c-2.3203 5.6406-4.0781 11.5-5.2383 17.5-0.35938 3.0195-2.9219 5.3008-5.9609 5.3008l-22.539 0.058593v23.84l22.539 0.058594v0.019531c2.8789 0 5.3594 2.0391 5.8789 4.8789 2.3008 12.18 7.0781 23.781 14.039 34.059 1.8594 2.3789 1.6406 5.7812-0.5 7.9219l-15.84 15.859-0.019532-0.019531-0.019531 0.23828 16.84 16.762 15.98-15.898h0.019531c2.0391-2.0195 5.2383-2.3203 7.6016-0.69922 10.238 7 21.801 11.82 33.98 14.16 3.0195 0.35938 5.3008 2.9219 5.3008 5.9609l0.058594 22.539-0.019531 0.019531 23.84-0.019531 0.058593-22.539h0.019531c0-2.8789 2.0586-5.3594 4.8984-5.8789 12.18-2.3008 23.781-7.0781 34.039-14.039 2.3984-1.8594 5.8008-1.6406 7.9414 0.5l16 15.898 16.859-16.859-15.898-16h-0.019531c-2.0195-2.0391-2.3203-5.2188-0.69922-7.6016 7-10.238 11.82-21.801 14.16-33.98 0.35938-3.0195 2.9219-5.3008 5.9609-5.3008l22.539-0.058594v-23.82l-22.539-0.058593v-0.019531c-2.8789 0-5.3398-2.0586-5.8789-4.8789-2.3008-12.199-7.0781-23.781-14.039-34.059-1.8594-2.3789-1.6406-5.7812 0.5-7.9219l15.898-16-16.859-16.859-15.98 15.922v-0.019531c-2.0391 2.0391-5.2383 2.3398-7.6211 0.71875-10.219-7-21.781-11.82-33.961-14.18-3.0195-0.35938-5.3008-2.9219-5.3008-5.9609l-0.058593-22.539 0.019531-0.019532-0.019531 0.019532c-0.039063-0.039063-0.078125-0.058594-0.14062-0.058594zm-11.781 61.922c-22.621 0-43.02 13.621-51.66 34.52-8.6602 20.898-3.8789 44.941 12.121 60.938 15.98 15.98 40.039 20.781 60.938 12.121 20.879-8.6602 34.52-29.039 34.52-51.66 0-14.84-5.8984-29.059-16.379-39.539-10.5-10.5-24.719-16.379-39.539-16.379zm-48.039 7.8984c-19.422 19.422-25.219 48.621-14.719 74 10.52 25.379 35.281 41.941 62.762 41.941 27.461 0 52.219-16.559 62.742-41.941 10.52-25.379 4.6992-54.578-14.719-74-12.738-12.738-30.02-19.898-48.02-19.898-18.02 0-35.301 7.1602-48.039 19.898zm7.4609 253.58 250.52-0.019531-0.078125-25.801-0.48047-0.26172h-156.24c-6.9414-0.019531-12.559-5.6406-12.578-12.559v-11.82h0.019531l-0.57812-0.55859h-80.02l-0.55859 0.55859zm262.52 6v63.023h124.34c2.1406-0.019531 3.8594-1.7617 3.8789-3.8789v-207.4h-35.141c-12.281-0.039063-22.199-9.9609-22.242-22.242v-35.059h-124.32c-2.1406 0-3.8789 1.7383-3.8789 3.8789v157.6h44.801c6.9219 0.019531 12.539 5.6406 12.559 12.559zm-12 138.06v-132.08h-250.52v132.06c0 0.14062 0.058594 0.28125 0.17969 0.39844l-0.019531 0.019531 0.39844 0.16016h249.4zm117.52-258.3-140.2-0.019531c-3.3203 0-6 2.6992-6 6 0 3.3203 2.6797 6 6 6h140.22c3.3008 0 6-2.6797 6-6 0-3.3008-2.6992-6-6-6zm0 42.98-140.2-0.019531c-3.3203 0-6 2.6797-6 6 0 3.3203 2.6797 6 6 6h140.22c3.3008 0 6-2.6797 6-6 0-3.3203-2.6992-6-6-6zm14.219-82.98-36.898-36.859v26.621-0.019531c0.039062 5.6406 4.6016 10.199 10.238 10.238z" fill-rule="evenodd"/>
</svg>
