<?xml version="1.0" encoding="UTF-8"?>
<svg width="512pt" height="512pt" version="1.1" viewBox="0 0 512 512" xmlns="http://www.w3.org/2000/svg">
 <path d="m487.88 137.22c-0.19922-2.9219-2.3594-5.3203-5.2188-5.8398-42.762-7.8398-85.004 5.7383-122.62 18.578 8.6602-33.02 7.1211-66.457-13.52-97.383-20.68-30.922-64.621-36.301-95.242-23.66-30.32 12.539-53.656 42.5-60.918 78.184-4.3008 21.141-2.8594 41.52 1.0781 59.5-30.922-5.1211-60.422-9.6211-88.98-13.922-29.641-4.5-60.32-9.1602-92.461-14.48-2.0391-0.35938-4.1016 0.30078-5.5781 1.8008-1.4805 1.4805-2.1602 3.5391-1.8008 5.5781 18.121 110.42 19.602 208.1 4.6602 307.34-0.51953 3.3203 1.6797 6.5 4.9609 7.2188 63.738 14.02 133.52 29.34 203.42 29.34 28.32 0 56.68-2.5 84.641-8.6602 21-4.6016 42.039-11.262 62.418-17.762 47.82-15.16 92.98-29.5 139.26-20.32 1.9414 0.39844 4-0.16016 5.4805-1.4805 1.4805-1.3398 2.3008-3.2812 2.1602-5.2812zm-285.02-27.539c6.3984-31.539 26.82-57.957 53.301-68.859 8.6602-3.5781 18.539-5.4805 28.52-5.4805 19.762 0 39.879 7.5195 51.199 24.418 47.762 71.418-21.039 162.62-66.621 222.98-1.3789 1.8398-2.7617 3.6797-4.1016 5.4805-20.219-25.898-39.379-67.379-48.941-88.16-10.082-21.781-20.539-55.059-13.359-90.379zm26.82 161.28c1.5391-3.0781 2.3984-6.2422 2.9609-9.418 8.6016 15.262 18.121 30.102 27.898 41.219 1.2188 1.3789 2.9609 2.1602 4.8203 2.1602h0.26172c1.9414-0.10156 3.7383-1.0195 4.8594-2.5586 2.8594-3.7812 5.8398-7.7812 8.9609-11.918 10.641-14.078 22.48-29.801 33.898-46.602 13.922 3.3203 28.219-0.10156 39.379-3.6797 2.5586-0.82031 5.1797-1.6797 7.7383-2.5586 9.9414-3.3789 19.359-6.6016 29.039-7.0195 10.398-0.51953 22.941 3.4414 27.641 13.16 3.0781 6.3398 2.5586 14.602 2.1016 21.859l-2.8203 44.238c-0.39844 6.6602-0.92188 14.18-4.1406 19.719-6.1406 10.398-21.238 12.602-32.719 10.238-8.4414-1.7383-16.441-5.2812-24.879-9.0586-5.0586-2.2617-10.34-4.6016-15.762-6.5586-11.121-4-32.199-8.9609-48.582 2.5586-12.141 8.5586-17.199 23.102-20.578 36.238-1.9414 7.6211-8.5586 14.539-14.961 21.199-2.3594 2.4609-4.6602 4.8594-6.7617 7.3203-1.8008 2.0391-3.4414 4.5-5.1797 7.0586-7.2188 10.801-14.078 21-33.68 14.738-21.039-6.6992-27.141-41.48-30.781-62.199-3.9414-22.422 6.6602-46.699 25.758-59.078 1.8984-1.2188 3.8398-2.3594 5.8398-3.4805 7.0781-4.2812 15.281-8.9805 19.68-17.578zm129.12 179.9c-20.082 6.3398-40.859 12.961-61.281 17.461-92.16 20.219-189.9-0.35938-276.68-19.398 13.879-95.898 12.539-190.56-4.1992-296.66 29.078 4.7617 56.879 9.0195 83.859 13.059 29.699 4.5 60.422 9.1602 92.621 14.539 0.62109 0.10156 1.1797 0 1.7383-0.058594 2.8594 9.5781 6.3398 18.18 9.7188 25.602 4.1992 9.1211 10.18 22.059 17.359 36.102 0 0.10156-0.10156 0.16016-0.10156 0.26172-0.66016 3.4414-0.87891 6.8008-1.0781 10.039-0.30078 4.9609-0.62109 9.6797-2.4609 13.359-2.6602 5.2188-8.5586 8.6602-14.801 12.281-2.1602 1.2188-4.3008 2.5-6.3398 3.8398-23.301 15.059-36.199 44.699-31.441 72.039 4.1406 23.602 11.121 63.121 39.52 72.203 5.5195 1.7383 10.441 2.5 14.801 2.5 18.48 0 27.539-13.559 33.441-22.32 1.4805-2.2617 2.9219-4.3594 4.1992-5.8398 1.9414-2.3008 4.1406-4.5586 6.3398-6.8008 7.1602-7.4805 15.301-15.98 18.121-26.879 2.7617-10.859 6.8008-22.781 15.559-28.918 11.621-8.1992 28.102-4.1406 36.918-0.98047 4.9609 1.8008 9.7812 3.9414 14.84 6.1992 8.6992 3.8984 17.719 7.8789 27.539 9.8789 16.34 3.3203 36.918-0.39844 46.281-16.281 4.8203-8.1406 5.4219-17.719 5.8789-25.398l2.8203-44.238c0.55859-8.4414 1.2188-18.898-3.3203-28.262-7.7383-15.98-26.219-20.879-39.738-20.32-11.52 0.51953-22.219 4.1406-32.621 7.6797-2.5 0.87891-5.0195 1.6797-7.5195 2.5-8.1406 2.6211-18.18 5.1797-27.699 4.2383 14.02-21.699 26.68-44.859 34.82-68.461 1.1797 0.30078 2.3984 0.39844 3.6406-0.058594 37.641-12.859 76.441-26.16 116.02-20.48l20.738 285.6c-46.762-6.7812-92.902 7.8008-137.5 21.98z"/>
 <path d="m275.82 170.08c6.5 0 13-1.1211 19.102-3.5391 19.859-7.7812 33.84-28.059 34.039-49.301 0.19922-21.5-13.461-41.781-33.281-49.359-20.02-7.6211-44.699-0.66016-57.34 16.18-18.84 25.039-19.559 51-2 69.477 10.082 10.699 24.781 16.539 39.48 16.539zm-27.301-78.281c6.8008-9.0195 18.281-14.18 29.738-14.18 4.3594 0 8.6992 0.76172 12.801 2.3008 14.699 5.5781 25.199 21.238 25.039 37.281-0.16016 15.922-11.059 31.699-25.898 37.48-14.84 5.8398-33.641 1.6406-44.641-9.8789-13.059-13.84-11.98-33.141 2.9609-53.004z"/>
 <path d="m381.38 366.9c-6.4609-2.7617-12.738-1.2188-18.281 0.10156-3.2188 0.76172-6.2422 1.5391-8.8008 1.2812-4.7188-0.46094-9.1602-4.3594-13.82-8.4414l-2.4609-2.1602c-9.9414-8.5-19.918-11.16-28.219-7.418-8.5 3.8398-12.961 13-13.199 27.141v0.66016c-0.10156 7.0586-0.26172 14.34-4.1406 17.82-6.3984 5.7383-9.5781 17.398-3.7812 25.078 6.0391 8.0391 17 8.9609 20.578 9.2617 2.5586 0.19922 5.0586 0.30078 7.6797 0.30078 19 0 38.699-5.8398 56.258-16.738 6.5586-4.0391 14.48-9.9414 18.121-19.199 3.8398-9.6602 0.71875-23.18-9.9414-27.68zm-1.9414 23.102c-1.7383 4.5-5.7383 8.5-12.961 12.961-17.621 10.961-37.578 16.121-56.121 14.539-5.9414-0.51953-9.6797-1.8984-11.422-4.1992-1.1797-1.5781 0-5.9414 2.1016-7.8398 8.0781-7.2188 8.3008-18.281 8.3984-27.141v-0.66016c0.10156-4.9609 0.92188-13.559 5.6797-15.719 0.82031-0.35938 1.6406-0.51953 2.5-0.51953 4.7188 0 10.238 4.3984 12.082 6l2.3008 2c5.7383 5.0586 12.18 10.801 21.102 11.621 4.6602 0.39844 9.1211-0.62109 13-1.5781 4.1406-0.98047 7.6797-1.8398 10.238-0.76172 3.5586 1.5195 4.5781 7.3984 3.1016 11.301z"/>
 <path d="m166.86 271.2c2.5586-2.3594 6.8008-3.3789 11.262-4.4609 2.7188-0.66016 5.4805-1.3398 8.2383-2.3594 10.602-3.9414 17.762-9.6797 21.301-17.102 6.6602-14.02-1.8984-30.719-13.98-37.48l-0.55859-0.30078c-16.18-9.0586-34.5-18.379-46.84-14.641-10.641 3.2188-14.18 11.578-17.621 19.66-3.8398 9.0195-8.1406 19.262-23.66 27.801-11.16 6.1406-35.082 24.719-16.582 64.523 3.1211 6.6992 7.1602 12.898 11.121 18.941 7.0586 10.801 13.719 21.039 13.922 32.559 0.058593 4.1016-0.35938 8.2383-0.82031 12.602-0.66016 6.1992-1.3398 12.602-0.55859 19.262 1.4805 13.059 10.801 26.98 25.141 27.18h0.35938c6.5 0 11.98-2.6602 15.879-7.6797 9.2617-12.141 6.8594-36.039 2-52.84-5.2383-17.762-17.281-59.34 11.398-85.656zm-23.699 130.72c-1.4414 1.8984-3.3203 2.6602-5.8398 2.6602-6.6602-0.10156-11.719-8.3008-12.602-15.879-0.62109-5.2188 0-10.641 0.55859-16.441 0.46094-4.5586 0.98047-9.3203 0.92188-14.18-0.26172-15.199-8.3008-27.5-16.02-39.32-3.8398-5.8789-7.4805-11.461-10.18-17.301-12.738-27.5-0.98047-41.219 11.16-47.922 19.359-10.641 25.078-24.16 29.238-34 3.2188-7.582 4.8203-11 9.5195-12.441 0.76172-0.19922 1.6406-0.35938 2.5586-0.35938 9.4805 0 27.859 10.301 34.301 13.879l0.55859 0.30078c6.9219 3.8984 12.18 13.359 8.6602 20.84-2.0391 4.3008-6.8008 7.8398-14.18 10.602-2.0391 0.76172-4.3594 1.2812-6.7617 1.8984-5.5781 1.3398-11.918 2.8594-16.941 7.4805-34.559 31.699-21 78.602-15.199 98.621 5.1992 17.539 5.2617 35 0.23828 41.559z"/>
</svg>
