<?xml version="1.0" encoding="UTF-8"?>
<svg width="512pt" height="512pt" version="1.1" viewBox="0 0 512 512" xmlns="http://www.w3.org/2000/svg">
 <path d="m463.09 424.21h-1.6328c-2.0156-14.832-14.879-26.703-29.297-33.648 4.832-6.625 7.5508-14.688 7.5508-23.07 0-21.602-17.566-39.168-39.152-39.168-21.617 0-39.184 17.566-39.184 39.168 0 8.3828 2.7188 16.465 7.5508 23.07-14.434 6.9453-27.281 18.816-29.312 33.648h-22.672c-2.0312-14.832-14.879-26.688-29.297-33.648 4.832-6.625 7.5195-14.688 7.5195-23.09 0-21.602-17.566-39.168-39.152-39.168-21.586 0-39.168 17.566-39.168 39.168 0 8.3828 2.7031 16.449 7.5508 23.07-14.414 6.9609-27.266 18.816-29.281 33.648h-22.688c-2.0312-14.832-14.879-26.703-29.312-33.648 4.8477-6.625 7.5508-14.688 7.5508-23.07 0-21.602-17.586-39.168-39.168-39.168-21.586 0-39.168 17.566-39.168 39.168 0 8.3828 2.7031 16.449 7.5508 23.07-14.434 6.9453-27.266 18.816-29.281 33.648l-1.6523 0.003906c-16.098 0-29.215 13.105-29.215 29.199v37.215c0 4.1445 3.375 7.5195 7.5352 7.5195h457.54c4.1602 0 7.5352-3.3594 7.5352-7.5195v-37.215c-0.015626-16.078-13.137-29.184-29.246-29.184zm-78.594-23.582c2.7695-0.81641 4.832-3.1367 5.3125-6 0.46484-2.8477-0.73438-5.7109-3.0898-7.375-6.4648-4.5273-10.32-11.922-10.32-19.762 0-13.312 10.832-24.145 24.16-24.145 13.312 0 24.129 10.832 24.129 24.145 0 7.8555-3.8555 15.246-10.32 19.762-2.3516 1.6641-3.5664 4.5273-3.0898 7.375 0.48047 2.8477 2.543 5.1836 5.3125 6 12.977 3.7773 26.594 12.992 29.504 23.586h-91.09c2.8984-10.594 16.531-19.812 29.492-23.586zm-144.56 0c2.7852-0.80078 4.8477-3.1367 5.3281-5.9844 0.46484-2.8477-0.73438-5.7109-3.0898-7.375-6.4492-4.543-10.32-11.938-10.32-19.777 0-13.312 10.832-24.145 24.145-24.145s24.145 10.832 24.145 24.145c0 7.8711-3.8555 15.246-10.305 19.762-2.3516 1.6641-3.5664 4.5273-3.0898 7.375 0.48047 2.8477 2.5273 5.1836 5.3125 5.9844 12.977 3.7773 26.574 13.008 29.488 23.602h-91.07c2.8945-10.594 16.512-19.812 29.457-23.586zm-144.51 0c2.7695-0.81641 4.832-3.1367 5.3125-5.9844 0.46484-2.8477-0.73438-5.7109-3.0898-7.375-6.4492-4.543-10.32-11.938-10.32-19.777 0-13.312 10.832-24.145 24.145-24.145s24.145 10.832 24.145 24.145c0 7.8555-3.8555 15.246-10.305 19.762-2.3672 1.6641-3.5859 4.5273-3.1055 7.375s2.543 5.1836 5.3125 6c12.977 3.7773 26.594 12.992 29.504 23.586l-91.086-0.003907c2.9102-10.59 16.512-19.809 29.488-23.582zm381.86 82.496h-442.53v-29.695c0-7.8086 6.3672-14.176 14.191-14.176h414.16c7.8086 0 14.191 6.3516 14.191 14.176v29.695z"/>
 <path d="m256 45.344c-63.84 0-115.78 51.953-115.78 115.79 0 63.84 51.938 115.78 115.78 115.78s115.78-51.953 115.78-115.78c0-63.84-51.938-115.79-115.78-115.79zm0 216.54c-55.551 0-100.75-45.199-100.75-100.75 0-55.566 45.199-100.75 100.75-100.75 55.566 0 100.75 45.199 100.75 100.75 0 55.555-45.188 100.75-100.75 100.75z"/>
 <path d="m474.82 13.855h-437.62c-16.094 0-29.199 13.105-29.199 29.199v236.14c0 16.098 13.105 29.199 29.199 29.199h437.62c16.098 0 29.184-13.105 29.184-29.199v-236.14c0-16.094-13.09-29.199-29.184-29.199zm14.16 265.34c0 7.8086-6.3359 14.176-14.16 14.176h-437.62c-7.793 0-14.176-6.3516-14.176-14.176v-236.14c0-7.8086 6.3672-14.176 14.176-14.176h437.62c7.8086 0 14.16 6.3516 14.16 14.176z"/>
 <path d="m321.81 154.62-96.449-55.68c-2.3359-1.3281-5.1836-1.3281-7.5195 0-2.3359 1.3438-3.7422 3.8242-3.7422 6.5117v111.34c0 2.6719 1.4258 5.168 3.7422 6.5117 1.1523 0.67188 2.4492 1.0078 3.7422 1.0078 1.3125 0 2.5938-0.33594 3.7617-1.0078l96.449-55.664c2.3203-1.3438 3.7422-3.8242 3.7422-6.5117s-1.4062-5.168-3.7266-6.5117zm-92.688 49.168v-85.328l73.887 42.672z"/>
</svg>
