<?xml version="1.0" encoding="UTF-8"?>
<svg width="512pt" height="512pt" version="1.1" viewBox="0 0 512 512" xmlns="http://www.w3.org/2000/svg">
 <defs>
  <clipPath id="a">
   <path d="m94.781 125h322.44v262h-322.44z"/>
  </clipPath>
 </defs>
 <g clip-path="url(#a)">
  <path d="m116.95 386.19c-3.2734-0.36719-6.8711-1.5781-9.7578-3.2773-6.9023-4.0625-11.461-11.145-12.293-19.102-0.19531-1.8828-0.082032-5.1875 0.24609-6.957 1.1836-6.4258 4.6016-11.953 9.75-15.777 4.4648-3.3164 9.3984-4.9453 14.969-4.9453 5.1992 0 9.7422 1.3711 14.031 4.2305 1.0039 0.67188 1.3672 0.87109 1.0234 0.5625l-0.53516-0.47656 0.30859-0.33203c0.16797-0.18359 10.164-11.41 22.211-24.949 12.047-13.539 23.082-25.934 24.516-27.543l2.6133-2.9297-7.3398-2.9141c-16.559-6.5703-34.215-13.605-34.348-13.684-0.10547-0.066406-0.09375-0.19922 0.046875-0.53906 0.33594-0.80469 0.19922-0.625-0.60156 0.79297-3.3633 5.9414-9.0664 10.316-15.617 11.977-2.0195 0.51172-3.3086 0.69922-5.3906 0.77734-4.6133 0.17969-9.1797-0.93359-13.176-3.207-7-3.9805-11.594-10.789-12.633-18.723-0.35156-2.6836-0.18359-6.2188 0.42188-8.8164 0.625-2.6797 1.9922-5.8984 3.4336-8.0859 5.9258-8.9727 16.535-13.195 26.922-10.723 3.4297 0.81641 6.3516 2.1953 9.2969 4.3906 2.9805 2.2188 5.5664 5.3203 7.3125 8.7773 0.73438 1.4531 0.8125 1.5625 0.51562 0.72266-0.10156-0.28516-0.14062-0.55078-0.089844-0.59766 0.050782-0.042969 8.125-2.8906 17.938-6.3242 9.8164-3.4336 19.047-6.6602 20.512-7.1719 1.4648-0.51172 2.6641-0.96094 2.6641-0.99609 0-0.066406-2.0547-2.4766-24.191-28.383-7.2891-8.5312-16.066-18.801-19.496-22.816l-6.2422-7.3047 0.5625-0.51172c0.48828-0.44531 0.43359-0.41797-0.45703 0.21094-1.3164 0.93359-4.5 2.5117-6.1328 3.043-1.5977 0.51953-3.6523 0.98438-5.0664 1.1445-1.582 0.17969-4.6367 0.15234-6.2422-0.058594-9.5664-1.2539-17.559-7.8555-20.594-17.004-2.8906-8.7188-0.73828-18.512 5.5156-25.074 4.9688-5.2188 11.223-7.9258 18.309-7.9258 5.8828 0 11.012 1.7773 15.711 5.4492 1.0898 0.85156 3.0977 2.8555 4.0234 4.0117 2.3008 2.875 4.1523 6.8086 4.8828 10.359 0.38672 1.8906 0.49609 3.0703 0.49609 5.3633 0 2.7891-0.28906 4.7617-1.1289 7.6914-0.039062 0.13281 0.027344 0.035156 0.14063-0.21484 0.16016-0.34766 0.26562-0.44531 0.44922-0.40625 0.13281 0.027344 5.7109 2.3672 12.398 5.2031 6.6875 2.8359 12.668 5.3672 13.297 5.6289 0.625 0.26172 7.5234 3.1758 15.332 6.4766 34.918 14.766 48.41 20.484 48.461 20.535 0.03125 0.03125-0.050782 0.30469-0.18359 0.61328-0.13281 0.30469-0.21875 0.55469-0.19141 0.55469 0.023437 0 0.26953-0.41797 0.54687-0.92969 1.6094-2.9844 4.6953-6.3711 7.6484-8.3945 3.0156-2.0664 6.4023-3.4375 10.141-4.1055 2.1328-0.37891 5.9766-0.38672 8.1445-0.011718 5.6094 0.96875 10.102 3.3242 14.02 7.3477 2.7656 2.8398 4.5742 5.8164 5.8047 9.5547 1.4023 4.2539 1.668 8.6914 0.78125 13.004-0.30469 1.4805-0.33594 1.918-0.066406 0.96094 0.097656-0.35156 0.20703-0.52734 0.30469-0.49219 0.082032 0.03125 2.6211 0.91797 5.6406 1.9727 4.9609 1.7305 18.539 6.4844 45.078 15.789 5.1719 1.8125 14.172 4.9688 20.004 7.0078 14.336 5.0234 17.273 6.0508 17.508 6.1445 0.18359 0.070313 0.18359 0.125 0.03125 0.5625-0.29297 0.82812-0.1875 0.68359 0.58203-0.80859 5.4766-10.617 17.434-15.898 29.012-12.82 2.2617 0.60156 5.207 1.9297 7.1094 3.207 1.543 1.0352 2.2969 1.6484 3.7109 3.0234 2.2852 2.2227 3.6406 4.0859 5.0625 6.9531 4.207 8.4805 3.2656 18.48-2.4648 26.23-0.89062 1.2031-3.0742 3.4492-4.2773 4.3984-6.9258 5.4648-15.754 7.0273-23.91 4.2344-3.8242-1.3086-7.0469-3.3633-9.9141-6.3125-1.7969-1.8477-3.0664-3.5664-4.1289-5.5859-0.42188-0.80469-0.59766-0.9375-0.30469-0.23438l0.17969 0.42969-1.2266 0.48047c-0.67578 0.26562-7.3711 2.9297-14.879 5.9219-7.5117 2.9922-18.613 7.4141-24.676 9.8203-6.0625 2.4102-16.328 6.4922-22.816 9.0703-15.207 6.0469-25.629 10.18-25.688 10.18-0.023438 0-0.10938-0.19141-0.1875-0.42578-0.25-0.75391-0.25391-0.35156-0.007813 0.53906 0.13281 0.47266 0.35938 1.5469 0.50391 2.3828 0.35156 2.0039 0.38281 5.75 0.066407 7.7461-1.7539 11.016-10.012 19.34-20.984 21.145-1.8047 0.29688-5.582 0.32422-7.4844 0.054687-7.8477-1.1133-14.938-6.1133-18.633-13.141-0.64062-1.2148-0.82422-1.4531-0.46875-0.60547 0.10156 0.23828 0.14062 0.47266 0.089844 0.51562-0.050781 0.042968-3.6211 1.4023-7.9375 3.0195s-24.098 9.043-43.957 16.5c-19.863 7.4609-36.312 13.633-36.559 13.723l-0.44531 0.16016-0.25-0.62109c-0.26172-0.64844-0.25781-0.61719 0.11719 0.9375 0.62891 2.6055 0.80078 6.5898 0.41016 9.3203-1.1914 8.2773-6.332 15.316-13.883 19.012-3.625 1.7734-6.9375 2.5273-10.977 2.4961-1.1445-0.007813-2.4844-0.0625-2.9805-0.11719zm4.7305-5.9023c1.1797-0.078124 3.0742-0.48437 4.457-0.95312 6.0859-2.0781 10.762-7.1602 12.309-13.367 0.45312-1.8281 0.57812-2.8242 0.57422-4.6758-0.003907-2.0117-0.16016-3.2695-0.63281-5.0312-1.9336-7.207-7.9258-12.676-15.234-13.902-2.5586-0.42969-5.9062-0.28125-8.2656 0.36719-5.8789 1.6133-10.867 6.1523-12.902 11.738-0.84766 2.3281-1.1953 4.3203-1.1992 6.8281 0 5.1875 2 9.9297 5.7422 13.633 3.1758 3.1367 7.5352 5.0938 12.043 5.4062 0.66016 0.046875 1.4414 0.066407 1.7383 0.046875 0.29688-0.019531 0.91797-0.058594 1.3789-0.089844zm20.953-30.125c-0.10938-0.27344-0.17188-0.52734-0.13672-0.5625 0.035156-0.035156 4.9883-1.9141 11.004-4.1719 22.805-8.5625 62.391-23.441 69.848-26.25 4.2695-1.6055 7.8359-2.9219 7.9258-2.9219 0.09375 0 0.23438 0.1875 0.31641 0.41797 0.24609 0.68359 0.24219 0.40625-0.011719-0.61328-0.49219-1.9844-0.65625-3.4727-0.65234-6.0312 0.003906-2.582 0.21484-4.3281 0.77734-6.3555 0.24609-0.89062 0.24219-1.2969-0.007812-0.53906-0.078125 0.23438-0.16406 0.42578-0.19141 0.42578-0.027343 0-6.6133-2.6094-14.633-5.7969-8.0234-3.1875-17.309-6.8789-20.633-8.1992-3.3281-1.3203-6.1094-2.418-6.1875-2.4375-0.074219-0.019531-6.1406 6.707-13.477 14.945s-18.754 21.059-25.375 28.488-12.102 13.594-12.184 13.695c-0.12891 0.16016-0.20703 0.12891-0.62891-0.25-0.75391-0.68359-0.71484-0.51172 0.078125 0.3125 1.3711 1.4297 3.1797 4.0938 4.0664 5.9883 0.27734 0.59375 0.34766 0.49219 0.097656-0.13672zm117-21.219c5.3828-1.0977 10.086-4.4219 12.875-9.0977 2.9258-4.9023 3.4531-11.16 1.4023-16.547-2.3281-6.1133-7.5625-10.559-14.109-11.984-1.043-0.22656-1.5781-0.26562-3.7891-0.26562-2.207 0-2.75 0.039063-3.7812 0.26172-1.7031 0.37109-2.9023 0.78125-4.4375 1.5156-7.418 3.5508-11.691 11.211-10.812 19.379 0.78906 7.3438 5.8672 13.656 12.922 16.062 2.2812 0.77734 4.332 1.0625 6.9961 0.97266 0.86328-0.03125 2.0703-0.16016 2.7383-0.29688zm-24.457-32.902c0.71875-1.0625 1.2461-1.7305 2.4414-3.0859 0.625-0.71094 0.70703-0.83984 0.32031-0.49609-0.50391 0.44531-0.52734 0.45312-0.73047 0.23828-0.11719-0.12109-1.4727-1.7031-3.0156-3.5156s-7.2461-8.4961-12.672-14.852c-5.4258-6.3555-9.875-11.574-9.8867-11.59-0.011719-0.015626-3.9414 4.3672-8.7305 9.7461-4.7891 5.3789-8.6914 9.793-8.668 9.8164 0.042968 0.042968 11.082 4.4414 28.602 11.395 5.8945 2.3398 10.758 4.2773 10.805 4.3047 0.046874 0.027344 0.003906 0.23438-0.089844 0.46094-0.31641 0.76172-0.17578 0.60938 0.41406-0.44531 0.32422-0.57422 0.87109-1.4648 1.2148-1.9766zm43.297 2.4492c-0.097657-0.23828-0.13672-0.46094-0.078125-0.49219 0.054687-0.035156 4.5703-1.8359 10.031-4.0039 9.9414-3.9453 20-7.9453 48.559-19.301 25.246-10.039 30.551-12.133 30.602-12.082 0.027344 0.027344 0.16016 0.28906 0.29688 0.58203 0.13672 0.29297 0.21875 0.42578 0.17969 0.29688-1.2305-4.1484-1.4414-8.4375-0.60547-12.516 0.29297-1.4297 0.31641-1.8164 0.0625-0.96875-0.082032 0.26953-0.16797 0.49219-0.19141 0.49219-0.027344 0-3.1836-1.1016-7.0195-2.4453-3.8359-1.3438-14.301-5.0156-23.262-8.1523-47.281-16.566-57.691-20.219-58.055-20.363-0.18359-0.070312-0.18359-0.125-0.03125-0.5625 0.28906-0.82031 0.19141-0.6875-0.50391 0.68359-1.9375 3.8203-4.9336 7.2109-8.4922 9.6055-4.6602 3.1367-10.66 4.6562-16.246 4.1055-4.5625-0.44922-8.668-1.9766-12.379-4.6016-0.875-0.61719-0.90625-0.63281-0.38281-0.16406l0.57422 0.51562-2.6719 2.9961c-13.863 15.539-23.133 26-23.133 26.109 0 0.070313 5.8477 6.9727 12.992 15.34 7.1445 8.3633 13.035 15.277 13.086 15.367 0.0625 0.10547-0.058594 0.29297-0.36328 0.57031-0.29688 0.26562-0.035157 0.13281 0.73828-0.37891 2.4219-1.6016 5.7031-2.9727 8.5352-3.5703 4.4414-0.9375 8.9492-0.69141 13.203 0.71875 6.043 2.0039 11.191 6.3047 14.207 11.867 0.49609 0.91797 0.64063 1.0703 0.34766 0.36328zm-37.656-8.4375c0.14844-0.19141 0.14453-0.19531-0.046875-0.046876-0.19922 0.15625-0.26172 0.25391-0.16406 0.25391 0.023438 0 0.12109-0.09375 0.21094-0.21094zm-42.875-20.969c5.293-5.9492 9.6367-10.859 9.6562-10.914 0.019531-0.050781-1.5977-2.0078-3.5938-4.3398-1.9961-2.3359-6.2969-7.3672-9.5586-11.184-3.2617-3.8164-6.0117-7.0352-6.1094-7.1523-0.17188-0.21094-0.21094-0.20703-1.0195 0.074218-0.46094 0.16016-10.238 3.5859-21.727 7.6094-11.488 4.0273-20.902 7.3203-20.922 7.3203s-0.097656-0.19141-0.17578-0.42578c-0.26172-0.79688-0.22656-0.34766 0.09375 1.1484 0.30078 1.4062 0.32031 1.6836 0.32422 4.7266 0.003906 3.5078-0.14453 4.6719-0.95703 7.4453-0.035157 0.12109 0.058593-0.027343 0.21094-0.32812l0.27344-0.54688 9.4023 3.7461c5.1719 2.0586 15.008 5.9805 21.859 8.7109 6.8516 2.7305 12.492 4.957 12.535 4.9492 0.042968-0.011719 4.4102-4.8867 9.7031-10.836zm-76.137 5.9609c6.7031-0.62891 12.539-4.7617 15.461-10.957 1.8633-3.9492 2.2852-8.5703 1.1836-12.91-1.1172-4.4062-4.0273-8.5039-7.8398-11.051-5.9023-3.9414-13.207-4.3594-19.523-1.1211-5.0781 2.6055-8.7031 7.3906-9.9609 13.16-0.23828 1.0977-0.27344 1.5859-0.27344 3.832 0.003906 2.207 0.039063 2.75 0.26953 3.8047 1.2383 5.6914 4.875 10.555 9.8242 13.125 3.4805 1.8086 6.9375 2.4805 10.859 2.1133zm273.59-0.16406c5.457-0.96484 10.18-4.207 13.105-8.9922 4.7695-7.8008 3.1719-18.168-3.7383-24.25-5.3086-4.6719-12.629-6.0234-19.375-3.5781-4.5312 1.6406-8.5898 5.3633-10.605 9.7227-2.0977 4.543-2.418 9.6484-0.88672 14.219 2.3945 7.1523 8.6875 12.25 16.102 13.047 1.2656 0.13672 4.1875 0.042969 5.3984-0.17188zm-171.25-35.238c6.8203-7.6719 12.516-14.062 12.664-14.203l0.26562-0.25 0.69141 0.58203c0.6875 0.57812 0.6875 0.57812-0.20703-0.37109-1.6055-1.6992-2.8672-3.5195-3.9961-5.7461-0.69531-1.3672-0.79297-1.5039-0.50391-0.68359 0.15625 0.4375 0.15234 0.49219-0.03125 0.56641-0.17969 0.070313-23.836 8.3711-34.504 12.105-2.332 0.81641-4.2539 1.5-4.2734 1.5156-0.019531 0.019532 2.832 3.3828 6.3359 7.4766s7.418 8.6836 8.7031 10.203c1.2852 1.5156 2.3633 2.7578 2.3945 2.7578s5.6367-6.2773 12.457-13.949zm-29.457-12.992c2.4648-0.86328 11.695-4.0977 20.512-7.1875 8.8164-3.0898 16.047-5.6172 16.066-5.6172 0.019531 0 0.10547 0.24219 0.1875 0.54297 0.26562 0.94531 0.23828 0.51562-0.0625-0.96484-0.81641-4.0195-0.64063-8.375 0.48437-12.094 0.21875-0.72266 0.38672-1.3281 0.36719-1.3477-0.015625-0.015625-0.15234 0.26953-0.30469 0.63672-0.15234 0.36719-0.33594 0.64062-0.41016 0.61328-0.21484-0.082031-29.648-12.527-46.668-19.73-8.5312-3.6094-21.656-9.1641-29.168-12.34-7.5117-3.1758-13.676-5.793-13.703-5.8164-0.027344-0.023437 0.054687-0.29688 0.17969-0.61328 0.34766-0.87891 0.33984-0.875-0.19531 0.085937-0.77344 1.3984-1.9336 3.082-2.832 4.1211-0.45313 0.52344-0.97656 1.1406-1.1719 1.3789l-0.35156 0.42969 0.375-0.34375c0.20703-0.19141 0.44922-0.31641 0.53906-0.28125 0.089844 0.035156 6.6016 7.6016 14.469 16.812 7.8672 9.2148 16.086 18.828 18.262 21.371 2.1758 2.543 7.2656 8.5078 11.32 13.262 4.0508 4.7539 7.4219 8.6445 7.4922 8.6445 0.070313 0.003906 2.1445-0.69922 4.6133-1.5625zm65.062 0.49219c7.4297-1.5703 13.117-7.0625 14.879-14.375 1.3555-5.625-0.003907-11.793-3.582-16.277-5.6133-7.0352-15.059-9.2656-23.227-5.4805-4.3398 2.0117-8.1211 6.1211-9.7617 10.621-1.3438 3.6836-1.5586 7.7578-0.60938 11.438 0.90234 3.4922 2.5898 6.3984 5.207 8.9844 2.9883 2.9492 7.0625 4.8789 11.254 5.332 1.5391 0.16406 4.5 0.042969 5.8398-0.23828zm-124.34-56.508c0.14844-0.19141 0.14453-0.19531-0.046874-0.046875-0.11719 0.089844-0.21094 0.18359-0.21094 0.21094 0 0.097657 0.097656 0.035157 0.25391-0.16406zm-13.672-0.80859c4.5664-0.30469 9.3203-2.7266 12.523-6.3828 2.4727-2.8203 3.9727-6.0586 4.6094-9.9648 0.1875-1.1484 0.18359-4.0742-0.003906-5.3906-1.1875-8.2344-7.582-14.812-15.719-16.18-2.5586-0.42969-5.9062-0.28125-8.2656 0.36719-5.9062 1.6211-10.844 6.1211-12.914 11.77-0.83594 2.2852-1.1875 4.2969-1.1875 6.7969 0 5.1875 2 9.9297 5.7422 13.633 2.5742 2.5469 6.0977 4.4062 9.6914 5.1172 1.082 0.21484 3.25 0.39844 4.0273 0.33984 0.26172-0.019532 0.9375-0.066406 1.4961-0.10547z"/>
 </g>
</svg>
