<?xml version="1.0" encoding="UTF-8"?>
<svg width="512pt" height="512pt" version="1.1" viewBox="0 0 512 512" xmlns="http://www.w3.org/2000/svg">
 <path d="m247.16 302.54h17.66c43.641 0 79.141-35.5 79.141-79.141v-110.94c0-43.641-35.5-79.141-79.141-79.141h-17.66c-43.641 0-79.141 35.5-79.141 79.141v110.94c0.019531 43.641 35.52 79.141 79.141 79.141zm-66.098-109.46h34.02c3.6016 0 6.5195-2.9219 6.5195-6.5195 0-3.6016-2.9219-6.5195-6.5195-6.5195h-34.02v-22.68h34.02c3.6016 0 6.5195-2.9219 6.5195-6.5195 0-3.6016-2.9219-6.5195-6.5195-6.5195h-34.02v-22.66h34.02c3.6016 0 6.5195-2.9219 6.5195-6.5195 0-3.6016-2.9219-6.5195-6.5195-6.5195h-33.82c2-34.66 30.762-62.258 65.898-62.258h17.66c35.16 0 63.898 27.602 65.898 62.258h-33.82c-3.6016 0-6.5195 2.9219-6.5195 6.5195 0 3.6016 2.9219 6.5195 6.5195 6.5195h34.02v22.68h-34.02c-3.6016 0-6.5195 2.9219-6.5195 6.5195 0 3.6016 2.9219 6.5195 6.5195 6.5195h34.02v22.68h-34.02c-3.6016 0-6.5195 2.9219-6.5195 6.5195 0 3.6016 2.9219 6.5195 6.5195 6.5195h34.02v21h-149.86zm149.68 34.02c-1.9414 34.719-30.719 62.402-65.922 62.402h-17.66c-35.199 0-63.98-27.68-65.922-62.402z"/>
 <path d="m368.92 194.2c0-3.6016-2.9219-6.5195-6.5195-6.5195-3.6016 0-6.5195 2.9219-6.5195 6.5195v26.602c0 55.082-44.82 99.902-99.902 99.902s-99.902-44.82-99.902-99.902v-26.602c0-3.6016-2.9219-6.5195-6.5195-6.5195-3.6016 0-6.5195 2.9219-6.5195 6.5195v26.602c0 60.059 47.18 109.18 106.4 112.6v30.898h-43.738c-3.6016 0-6.5195 2.9219-6.5195 6.5195 0 3.6016 2.9219 6.5195 6.5195 6.5195h100.5c3.6016 0 6.5195-2.9219 6.5195-6.5195 0-3.6016-2.9219-6.5195-6.5195-6.5195h-43.738v-30.898c59.238-3.3984 106.4-52.52 106.4-112.6z"/>
 <path d="m60.801 426.88c-3.6016 0-6.5195 2.9219-6.5195 6.5195v15.762c0 3.6016 2.9219 6.5195 6.5195 6.5195 3.6016 0 6.5195-2.9219 6.5195-6.5195v-15.762c-0.019531-3.6016-2.9219-6.5195-6.5195-6.5195z"/>
 <path d="m80.82 415.56c-3.6016 0-6.5195 2.9219-6.5195 6.5195v38.422c0 3.6016 2.9219 6.5195 6.5195 6.5195 3.6016 0 6.5195-2.9219 6.5195-6.5195v-38.422c0-3.6211-2.9219-6.5195-6.5195-6.5195z"/>
 <path d="m100.86 403.9c-3.6016 0-6.5195 2.9219-6.5195 6.5195v61.742c0 3.6016 2.9219 6.5195 6.5195 6.5195 3.6016 0 6.5195-2.9219 6.5195-6.5195v-61.742c0-3.6016-2.9219-6.5195-6.5195-6.5195z"/>
 <path d="m120.9 418.5c-3.6016 0-6.5195 2.9219-6.5195 6.5195v32.52c0 3.6016 2.9219 6.5195 6.5195 6.5195 3.6016 0 6.5195-2.9219 6.5195-6.5195v-32.52c-0.019531-3.6016-2.9414-6.5195-6.5195-6.5195z"/>
 <path d="m140.92 422.44c-3.6016 0-6.5195 2.9219-6.5195 6.5195v24.641c0 3.6016 2.9219 6.5195 6.5195 6.5195 3.6016 0 6.5195-2.9219 6.5195-6.5195v-24.641c0-3.6016-2.9219-6.5195-6.5195-6.5195z"/>
 <path d="m164.22 426.88c-3.6016 0-6.5195 2.9219-6.5195 6.5195v15.762c0 3.6016 2.9219 6.5195 6.5195 6.5195 3.6016 0 6.5195-2.9219 6.5195-6.5195v-15.762c0-3.6016-2.9219-6.5195-6.5195-6.5195z"/>
 <path d="m184.26 415.56c-3.6016 0-6.5195 2.9219-6.5195 6.5195v38.422c0 3.6016 2.9219 6.5195 6.5195 6.5195 3.6016 0 6.5195-2.9219 6.5195-6.5195v-38.422c-0.019532-3.6211-2.9219-6.5195-6.5195-6.5195z"/>
 <path d="m204.28 403.9c-3.6016 0-6.5195 2.9219-6.5195 6.5195v61.742c0 3.6016 2.9219 6.5195 6.5195 6.5195 3.6016 0 6.5195-2.9219 6.5195-6.5195v-61.742c0-3.6016-2.9219-6.5195-6.5195-6.5195z"/>
 <path d="m224.32 418.5c-3.6016 0-6.5195 2.9219-6.5195 6.5195v32.52c0 3.6016 2.9219 6.5195 6.5195 6.5195 3.6016 0 6.5195-2.9219 6.5195-6.5195v-32.52c0-3.6016-2.9219-6.5195-6.5195-6.5195z"/>
 <path d="m244.36 422.44c-3.6016 0-6.5195 2.9219-6.5195 6.5195v24.641c0 3.6016 2.9219 6.5195 6.5195 6.5195 3.6016 0 6.5195-2.9219 6.5195-6.5195v-24.641c-0.019531-3.6016-2.9414-6.5195-6.5195-6.5195z"/>
 <path d="m267.64 426.88c-3.6016 0-6.5195 2.9219-6.5195 6.5195v15.762c0 3.6016 2.9219 6.5195 6.5195 6.5195 3.6016 0 6.5195-2.9219 6.5195-6.5195v-15.762c0-3.6016-2.9219-6.5195-6.5195-6.5195z"/>
 <path d="m287.68 415.56c-3.6016 0-6.5195 2.9219-6.5195 6.5195v38.422c0 3.6016 2.9219 6.5195 6.5195 6.5195 3.6016 0 6.5195-2.9219 6.5195-6.5195v-38.422c0-3.6211-2.9219-6.5195-6.5195-6.5195z"/>
 <path d="m307.72 403.9c-3.6016 0-6.5195 2.9219-6.5195 6.5195v61.742c0 3.6016 2.9219 6.5195 6.5195 6.5195 3.6016 0 6.5195-2.9219 6.5195-6.5195v-61.742c0-3.6016-2.9219-6.5195-6.5195-6.5195z"/>
 <path d="m327.74 418.5c-3.6016 0-6.5195 2.9219-6.5195 6.5195v32.52c0 3.6016 2.9219 6.5195 6.5195 6.5195 3.6016 0 6.5195-2.9219 6.5195-6.5195v-32.52c0-3.6016-2.9219-6.5195-6.5195-6.5195z"/>
 <path d="m347.78 422.44c-3.6016 0-6.5195 2.9219-6.5195 6.5195v24.641c0 3.6016 2.9219 6.5195 6.5195 6.5195 3.6016 0 6.5195-2.9219 6.5195-6.5195v-24.641c0-3.6016-2.9219-6.5195-6.5195-6.5195z"/>
 <path d="m371.08 426.88c-3.6016 0-6.5195 2.9219-6.5195 6.5195v15.762c0 3.6016 2.9219 6.5195 6.5195 6.5195 3.6016 0 6.5195-2.9219 6.5195-6.5195v-15.762c-0.019531-3.6016-2.9414-6.5195-6.5195-6.5195z"/>
 <path d="m391.1 415.56c-3.6016 0-6.5195 2.9219-6.5195 6.5195v38.422c0 3.6016 2.9219 6.5195 6.5195 6.5195 3.6016 0 6.5195-2.9219 6.5195-6.5195v-38.422c0-3.6211-2.9219-6.5195-6.5195-6.5195z"/>
 <path d="m411.14 403.9c-3.6016 0-6.5195 2.9219-6.5195 6.5195v61.742c0 3.6016 2.9219 6.5195 6.5195 6.5195 3.6016 0 6.5195-2.9219 6.5195-6.5195v-61.742c0-3.6016-2.9219-6.5195-6.5195-6.5195z"/>
 <path d="m431.16 418.5c-3.6016 0-6.5195 2.9219-6.5195 6.5195v32.52c0 3.6016 2.9219 6.5195 6.5195 6.5195 3.6016 0 6.5195-2.9219 6.5195-6.5195v-32.52c0-3.6016-2.9219-6.5195-6.5195-6.5195z"/>
 <path d="m451.2 422.44c-3.6016 0-6.5195 2.9219-6.5195 6.5195v24.641c0 3.6016 2.9219 6.5195 6.5195 6.5195 3.6016 0 6.5195-2.9219 6.5195-6.5195v-24.641c0-3.6016-2.9219-6.5195-6.5195-6.5195z"/>
</svg>
