<?xml version="1.0" encoding="UTF-8"?>
<svg width="512pt" height="512pt" version="1.1" viewBox="0 0 512 512" xmlns="http://www.w3.org/2000/svg">
 <path d="m333.87 290.02c0.050781-0.074219 0.10938-0.14844 0.16016-0.22266h-0.003906c23.777-34.801 33.711-77.219 27.852-118.96-5.8633-41.738-27.09-79.781-59.531-106.69-32.438-26.906-73.754-40.734-115.86-38.773-42.098 1.957-81.953 19.562-111.75 49.363s-47.406 69.656-49.363 111.75c-1.9609 42.102 11.867 83.418 38.773 115.86 26.906 32.441 64.953 53.668 106.69 59.527 41.738 5.8633 84.156-4.0703 118.96-27.848 0.074219-0.050782 0.14453-0.10938 0.22266-0.16016l143.45 143.45c7.8359 7.8359 19.254 10.895 29.953 8.0273 10.703-2.8672 19.062-11.227 21.93-21.93 2.8672-10.699-0.19141-22.117-8.0273-29.953zm-139.31 44.113c-45.281 0.035156-87.766-21.887-113.98-58.805-26.219-36.922-32.91-84.258-17.953-127 14.957-42.742 49.703-75.578 93.219-88.098s90.398-3.168 125.78 25.09c35.379 28.262 54.867 71.918 52.277 117.12-2.5898 45.207-26.93 86.352-65.309 110.39-22.195 13.895-47.848 21.277-74.035 21.297z"/>
</svg>
