<?xml version="1.0" encoding="UTF-8"?>
<svg width="512pt" height="512pt" version="1.1" viewBox="0 0 512 512" xmlns="http://www.w3.org/2000/svg">
 <path d="m176.26 509.92c-3.2812 0-6.2422-1.9609-7.5391-4.9805-1.2812-3.0195-0.64062-6.5195 1.6406-8.8984l23.641-24.5c1.5781-1.6406 3.7812-2.5586 6.0586-2.5 0.83984 0 82.078 1 110-46.559 1.1016-1.8789 2.8984-3.2383 5-3.7812 2.1016-0.53906 4.3398-0.23828 6.2188 0.85938 3.8984 2.2812 5.1992 7.3008 2.9219 11.199-29.422 50.121-103.24 54.359-120.8 54.641l-21.219 22c-1.5391 1.6211-3.6797 2.5391-5.918 2.5195z"/>
 <path d="m366.84 434.64h-178.84c-2.3984 0-4.6992-1.0586-6.2422-2.8984-1.5586-1.8398-2.2383-4.2617-1.8398-6.6406 0.14063-0.82031 13.199-82.359-26.281-113.92v-0.019532c-2.6406-2.1211-3.6992-5.6406-2.6992-8.8789l18-56.637h0.019531c4.9414-15.762-2.4805-32.781-17.418-39.859-0.92188-0.42188-1.9609-0.44141-2.8789-0.039062-0.94141 0.39844-1.6406 1.1797-1.9414 2.1211l-41.281 126.94c-2.3789 13-3.6016 36.461 3.0586 45.699l-0.019532 0.019532c2.3398 3.1992 2.0195 7.6406-0.76172 10.48l-28 28.879v0.019531c-1.4609 1.6992-3.5781 2.6992-5.8203 2.8008-2.2383 0.078125-4.4414-0.73828-6.0391-2.3203-1.6211-1.5586-2.5195-3.7188-2.4805-5.9609 0.019531-2.2617 0.98047-4.3984 2.6211-5.918l23.762-24.5c-8.3398-19.18-3-49-2.3203-52.699 0.058594-0.33984 0.14062-0.67969 0.23828-1l41.418-127.5c1.7812-5.4219 5.8008-9.8203 11.02-12.082 5.2383-2.2617 11.199-2.1602 16.359 0.28125 22.359 10.602 33.48 36.039 26.059 59.637l-16.359 51.516c33.961 32 31.52 92.602 29.121 116.12l169.54 0.019531c7.0781 0 12.82-5.7383 12.84-12.82v-25.48c0-4.5195 3.6602-8.1992 8.1797-8.1992 4.5195 0 8.1797 3.6797 8.1797 8.1992v25.418c0 16.121-13.059 29.199-29.199 29.219z"/>
 <path d="m387.68 112.38h-91.844c-4.5195 0-8.1992-3.6602-8.1992-8.1797 0-4.5391 3.6797-8.1992 8.1992-8.1992h91.844-0.019532c4.5391 0 8.1992 3.6602 8.1992 8.1992 0 4.5195-3.6602 8.1797-8.1992 8.1797z"/>
 <path d="m380.6 389.52c-12.121 0.019531-22.941-7.582-27.039-18.98-4.1211-11.422-0.62109-24.16 8.7188-31.898l25.539-21.102h0.019532c5.8594-4.8984 13.441-7.2617 21.059-6.5586 7.6211 0.69922 14.66 4.4219 19.52 10.32 4.8789 5.8984 7.1992 13.5 6.4414 21.121-0.73828 7.6211-4.5 14.621-10.422 19.441l-25.559 21.141c-5.1406 4.2383-11.602 6.5391-18.281 6.5195zm25.52-62.16c-2.8594 0-5.6406 1-7.8594 2.8203l-25.539 21.102c-5.2617 4.3398-6 12.141-1.6602 17.398 4.3398 5.2617 12.141 6 17.379 1.6406l25.559-21.078c4.0195-3.3203 5.5195-8.8203 3.7617-13.719-1.7812-4.8984-6.4219-8.1602-11.641-8.1602z"/>
 <path d="m378 338.38c-12.121 0.019532-22.961-7.582-27.059-19-4.1211-11.398-0.62109-24.18 8.7383-31.898l25.539-21.102v0.019532c5.8789-4.9219 13.461-7.2812 21.078-6.582 7.6211 0.69922 14.641 4.4219 19.52 10.32 4.8789 5.8984 7.1797 13.5 6.4414 21.121-0.76172 7.6211-4.5 14.621-10.441 19.461l-25.559 21.102 0.019532-0.019531c-5.1406 4.2617-11.621 6.582-18.281 6.582zm17.68-59.383-25.539 21.121h-0.019531c-5.2617 4.3398-6 12.121-1.6406 17.379 4.3398 5.2617 12.121 6 17.379 1.6602l25.559-21.102h-0.019531c5.1992-4.3594 5.8984-12.102 1.5781-17.34-4.3203-5.2188-12.039-6-17.301-1.7188z"/>
 <path d="m375.44 287.22c-12.141 0.019532-22.961-7.582-27.082-19-4.1016-11.398-0.60156-24.16 8.7383-31.879l25.559-21.102h-0.019532c5.8594-5.0195 13.5-7.4609 21.18-6.8008s14.762 4.3789 19.68 10.34c4.8984 5.9414 7.2188 13.602 6.4219 21.281-0.80078 7.6602-4.6406 14.68-10.68 19.5l-25.539 21.102h0.019532c-5.1602 4.2383-11.621 6.5586-18.281 6.5586zm25.5-62.219c-2.8594 0-5.6406 1-7.8594 2.8398l-25.539 21.16c-5.2617 4.3398-6 12.121-1.6602 17.398 4.3594 5.2188 12.141 5.9414 17.398 1.6016l25.559-21.102h-0.019532c4.0391-3.3203 5.5586-8.8203 3.8008-13.738-1.7812-4.8984-6.4609-8.1797-11.68-8.1602z"/>
 <path d="m387.84 229.72c-3.4609 0.019531-6.5391-2.1602-7.6992-5.4219-1.1797-3.2383-0.17969-6.8789 2.5-9.0781l42.879-35.398v0.019532c5.2383-4.3789 5.9609-12.18 1.6016-17.418-4.3789-5.2383-12.18-5.9609-17.418-1.5781l-16.641 13.738v-0.019531c-1.6797 1.3984-3.8398 2.0586-6 1.8594-2.1602-0.21875-4.1602-1.2812-5.5391-2.9414-2.8789-3.5-2.3789-8.6602 1.1016-11.539l16.68-13.762h-0.019532c5.8789-4.8789 13.441-7.2188 21.039-6.5 7.6016 0.69922 14.602 4.3984 19.48 10.281 4.8594 5.8789 7.1797 13.461 6.4609 21.059-0.71875 7.582-4.4414 14.582-10.32 19.441l-42.879 35.398h-0.019531c-1.4609 1.2188-3.3008 1.8789-5.1992 1.8594z"/>
 <path d="m360.36 372.32h-172.2c-4.3984-0.16016-7.8984-3.7812-7.8984-8.1992 0-4.4219 3.5-8.0391 7.8984-8.1992h172.2c4.4219 0.16016 7.9219 3.7812 7.9219 8.1992 0 4.4219-3.5 8.0391-7.9219 8.1992z"/>
 <path d="m295.26 403.48h-48c-4.5195 0-8.1797-3.6602-8.1797-8.1992 0-4.5195 3.6602-8.1797 8.1797-8.1797h48c4.5195 0 8.1797 3.6602 8.1797 8.1797 0 4.5391-3.6602 8.1992-8.1797 8.1992z"/>
 <path d="m161.34 210.28c-2.1797 0.019531-4.2617-0.83984-5.8008-2.3789-1.5391-1.5391-2.3984-3.6211-2.3789-5.8008v-36.199c0-4.5195 3.6602-8.1797 8.1797-8.1797 4.5195 0 8.1797 3.6602 8.1797 8.1797v36.199c0 4.5195-3.6602 8.1797-8.1797 8.1797z"/>
 <path d="m387.84 229.72c-4.5391 0-8.1992-3.6797-8.1992-8.1992v-149.32c-0.019531-7.0586-5.7188-12.781-12.781-12.801h-71c-4.5195 0-8.1797-3.6602-8.1797-8.1797s3.6602-8.1797 8.1797-8.1797h71c16.078 0.019532 29.121 13.059 29.141 29.141v149.34c0 4.5-3.6602 8.1797-8.1602 8.1992z"/>
 <path d="m238.5 174.08c-1.6797 0.019531-3.3398-0.5-4.6992-1.4805l-44.5-31.281h-98.242c-13.559-0.019531-24.559-11-24.582-24.559v-90.121 0.019531c0.019532-13.578 11.02-24.582 24.582-24.582h155.62c13.578 0 24.559 11 24.582 24.559v90.121c-0.019531 13.559-11 24.539-24.582 24.559v24.582c0 2.1797-0.85938 4.2617-2.3789 5.8008-1.5391 1.5195-3.6211 2.3789-5.8008 2.3789zm-147.44-155.64c-4.5195 0.019532-8.1992 3.6797-8.1797 8.1992v90.121c0 2.1602 0.85938 4.2383 2.3789 5.7812 1.5391 1.5391 3.6211 2.3984 5.8008 2.3984h100.82c1.6992 0 3.3398 0.51953 4.7188 1.5l33.719 23.699v-17.02c0-4.5195 3.6602-8.1797 8.1797-8.1797h8.1992-0.019531c2.1797 0 4.2617-0.85938 5.8008-2.3984 1.5391-1.5391 2.3984-3.6211 2.3984-5.7812v-90.121c0-4.5195-3.6602-8.1797-8.1992-8.1992z"/>
 <path d="m222.12 59.402h-106.48c-4.5391 0-8.1992-3.6602-8.1992-8.1797 0-4.5195 3.6602-8.1797 8.1992-8.1797h106.48c4.5195 0 8.1992 3.6602 8.1992 8.1797 0 4.5195-3.6797 8.1797-8.1992 8.1797z"/>
 <path d="m222.12 100.36h-106.48c-4.4219-0.14062-7.9219-3.7617-7.9219-8.1797 0-4.4219 3.5-8.0391 7.9219-8.1992h106.48c4.4219 0.16016 7.9219 3.7812 7.9219 8.1992 0 4.4219-3.5 8.0391-7.9219 8.1797z"/>
 <path d="m271.26 254c-13.82 0-26.262-8.3203-31.559-21.078-5.2812-12.762-2.3594-27.461 7.418-37.219 9.7578-9.7578 24.441-12.68 37.199-7.3984 12.762 5.2812 21.078 17.738 21.078 31.539-0.019531 18.859-15.281 34.141-34.141 34.16zm0-51.922c-7.1797 0-13.66 4.3203-16.418 10.961-2.7617 6.6406-1.2383 14.281 3.8398 19.359 5.0586 5.0781 12.699 6.6016 19.34 3.8594 6.6406-2.7383 10.98-9.2188 10.98-16.398-0.019531-9.8008-7.9414-17.738-17.738-17.762z"/>
 <path d="m323.58 334.48h-104.64c-2.2812 0-4.4609-0.96094-6-2.6211-1.5586-1.6797-2.3398-3.8984-2.1797-6.1797 1.1602-15.781 1.5195-20.84 1.7188-22.719 1.5195-18.922 17.879-33.719 37.238-33.719h3.1211c3.1797 0 6.0586 1.8398 7.418 4.6992 2.0391 4.2617 6.3398 6.9609 11.059 6.9609s9.0195-2.6992 11.082-6.9609c1.3398-2.8398 4.2188-4.6602 7.3789-4.6602h3.0586c19.359 0 35.719 14.801 37.238 33.719 0.19922 1.8789 0.55859 6.9414 1.7188 22.719 0.16016 2.2812-0.62109 4.5-2.1602 6.1797-1.5586 1.6602-3.7383 2.6211-6 2.6211zm-95.82-16.379h87c-0.73828-10-1-13-1-13.621v-0.19922c-0.80078-10-9.1992-17.879-19.441-18.602-5.3984 7.2812-13.941 11.578-23.02 11.578s-17.621-4.3008-23.02-11.578c-10.238 0.67969-18.66 8.6016-19.461 18.602h-0.019531c0.019531 0.058594 0.019531 0.14062 0 0.19922-0.12109 0.94141-0.60156 7.5195-1.0391 13.602z"/>
</svg>
