<?xml version="1.0" encoding="UTF-8"?>
<svg width="512pt" height="512pt" version="1.1" viewBox="0 0 512 512" xmlns="http://www.w3.org/2000/svg">
 <path d="m213.34 176c0 32.398-26.281 58.66-58.68 58.66-32.398 0-58.66-26.262-58.66-58.66s26.262-58.66 58.66-58.66c32.398 0 58.68 26.262 58.68 58.66zm-21.34 0c0 20.621-16.719 37.34-37.34 37.34s-37.32-16.719-37.32-37.34 16.699-37.34 37.32-37.34 37.34 16.719 37.34 37.34z" fill-rule="evenodd"/>
 <path d="m416 176c0 32.398-26.262 58.66-58.66 58.66-32.398 0-58.68-26.262-58.68-58.66s26.281-58.66 58.68-58.66c32.398 0 58.66 26.262 58.66 58.66zm-21.34 0c0 20.621-16.699 37.34-37.32 37.34s-37.34-16.719-37.34-37.34 16.719-37.34 37.34-37.34 37.32 16.719 37.32 37.34z" fill-rule="evenodd"/>
 <path d="m21.34 96c0-11.781 9.5391-21.34 21.32-21.34h426.68c11.781 0 21.32 9.5586 21.32 21.34v277.34c0 11.781-9.5391 21.32-21.32 21.32h-48.922l35.121 35.141c4.1602 4.1602 4.1602 10.922 0 15.078-4.1602 4.1602-10.922 4.1602-15.078 0l-45.801-45.801-45.781 45.801c-4.1602 4.1602-10.922 4.1602-15.078 0-4.1797-4.1602-4.1797-10.922 0-15.078l35.121-35.141h-225.84l35.121 35.141c4.1797 4.1602 4.1797 10.922 0 15.078-4.1602 4.1602-10.922 4.1602-15.078 0l-45.781-45.801-45.801 45.801c-4.1602 4.1602-10.922 4.1602-15.078 0-4.1602-4.1602-4.1602-10.922 0-15.078l35.121-35.141h-48.922c-11.781 0-21.32-9.5391-21.32-21.32zm21.32 0h426.68v234.66h-21.34v-21.32c0-35.359-28.66-64-64-64h-53.34c-35.34 0-64 28.641-64 64v21.32h-21.32v-21.32c0-35.359-28.66-64-64-64h-53.34c-35.34 0-64 28.641-64 64v21.32h-21.34zm426.68 256v21.34h-426.68v-21.34zm-384-21.34h138.66v-21.32c0-23.582-19.102-42.68-42.66-42.68h-53.34c-23.559 0-42.66 19.102-42.66 42.68zm202.66 0h138.66v-21.32c0-23.582-19.102-42.68-42.66-42.68h-53.34c-23.559 0-42.66 19.102-42.66 42.68z" fill-rule="evenodd"/>
</svg>
