<?xml version="1.0" encoding="UTF-8"?>
<svg width="512pt" height="512pt" version="1.1" viewBox="0 0 512 512" xmlns="http://www.w3.org/2000/svg">
 <path d="m424.53 141.73h-140.32v-12.734l62.188-50.57c3.3359 1.6797 7.0117 2.5625 10.742 2.5859 6.5 0 12.73-2.582 17.324-7.1797 4.5977-4.5938 7.1758-10.828 7.1758-17.328 0-6.4961-2.582-12.73-7.1797-17.324-4.5938-4.5938-10.828-7.1758-17.324-7.1758-6.5 0-12.73 2.582-17.328 7.1758-4.5938 4.5977-7.1758 10.828-7.1758 17.328 0.019532 3.6367 0.85938 7.2266 2.4531 10.496l-54.613 44.41c-3.2344-5.8633-8.4688-10.367-14.746-12.699-6.2773-2.3281-13.184-2.3281-19.461 0.003906-6.2773 2.332-11.508 6.8398-14.742 12.703l-54.625-44.418c1.5938-3.2695 2.4336-6.8594 2.4531-10.496 0-6.5-2.582-12.73-7.1758-17.328-4.5977-4.5938-10.828-7.1758-17.328-7.1758s-12.73 2.582-17.328 7.1758c-4.5938 4.5977-7.1758 10.828-7.1758 17.328s2.582 12.73 7.1758 17.328c4.5977 4.5938 10.828 7.1758 17.328 7.1758 3.7305-0.023437 7.4062-0.90625 10.738-2.5859l62.207 50.586v12.723h-140.33v-0.003907c-8.4844 0.011719-16.617 3.3828-22.617 9.3828s-9.3711 14.133-9.3828 22.617v224.47c0.023437 6.6445 2.1172 13.121 5.9922 18.52s9.3398 9.457 15.629 11.605v36.309c0.10547 4.0547 1.7969 7.9102 4.7109 10.734 2.9102 2.8242 6.8125 4.3945 10.871 4.3789 4.0586-0.015625 7.9453-1.6211 10.836-4.4688l43.375-45.078h218.24l43.375 45.082c2.8828 2.8672 6.7773 4.4844 10.844 4.5039 4.0625 0.023438 7.9766-1.5547 10.891-4.3867 2.9141-2.8359 4.5977-6.7031 4.6875-10.766v-36.312c6.2891-2.1445 11.75-6.2031 15.625-11.602s5.9688-11.875 5.9922-18.52v-224.47c-0.007812-8.4844-3.3828-16.617-9.3828-22.617s-14.133-9.375-22.617-9.3828zm-67.391-93.727c3.4375 0 6.5391 2.0742 7.8555 5.2539 1.3125 3.1758 0.58594 6.832-1.8477 9.2656-2.4336 2.4297-6.0898 3.1562-9.2656 1.8398-3.1797-1.3164-5.25-4.418-5.25-7.8555 0.003907-4.6953 3.8125-8.5 8.5078-8.5039zm-113.35 77.172c0.015625-6.7305 5.4766-12.18 12.211-12.18 6.7305 0 12.191 5.4492 12.207 12.18v16.25h-24.418zm-97.449-68.668c0-3.4414 2.0703-6.5391 5.25-7.8555 3.1758-1.3164 6.8359-0.58984 9.2656 1.8438 2.4336 2.4297 3.1602 6.0898 1.8438 9.2656-1.3164 3.1797-4.4141 5.25-7.8555 5.25-4.6953-0.007812-8.4961-3.8086-8.5039-8.5039zm-53.258 406.52v-32.828h31.586zm294.24-32.828h31.59v32.832zm53.207-32c-0.003906 4.2422-1.6914 8.3086-4.6914 11.309s-7.0664 4.6875-11.309 4.6914h-337.07c-4.2422-0.003907-8.3086-1.6914-11.309-4.6914s-4.6875-7.0664-4.6914-11.309v-224.47c0.003906-4.2422 1.6914-8.3086 4.6914-11.309s7.0664-4.6875 11.309-4.6914h337.07c4.2422 0.003907 8.3086 1.6914 11.309 4.6914s4.6875 7.0664 4.6914 11.309z"/>
 <path d="m300.53 200.2c-61.621-8.6953-124.15-8.6953-185.77 0-3.375 0.47656-6.0742 3.0352-6.7344 6.3789-9.5352 52.406-9.5469 106.1-0.042969 158.51 0.57031 3.5039 3.3828 6.2148 6.9062 6.6523 31.297 3.9297 62.805 5.9141 94.348 5.9453 30.508 0.035156 60.988-1.9531 91.234-5.9531 3.5156-0.46875 6.3047-3.1953 6.8516-6.6992 7.8398-52.391 7.8477-105.66 0.015626-158.05-0.50781-3.5234-3.2812-6.2891-6.8047-6.7852zm-8.1406 156.44c-56.316 6.7539-113.24 6.7344-169.55-0.054688-7.8984-46.77-7.9531-94.527-0.16406-141.32 56.305-7.4297 113.34-7.4453 169.65-0.039063 6.4844 46.91 6.5078 94.492 0.070313 141.41z"/>
 <path d="m383.77 243.93c7.5234 0 14.738-2.9883 20.059-8.3086 5.3203-5.3203 8.3086-12.535 8.3086-20.059 0-7.5234-2.9883-14.738-8.3086-20.059-5.3203-5.3203-12.535-8.3086-20.059-8.3086s-14.738 2.9883-20.059 8.3086c-5.3203 5.3203-8.3086 12.535-8.3086 20.059 0.007812 7.5195 3 14.73 8.3164 20.051 5.3203 5.3164 12.531 8.3086 20.051 8.3164zm0-40.734c5.0039 0 9.5117 3.0117 11.426 7.6328 1.9141 4.6211 0.85547 9.9414-2.6797 13.48-3.5391 3.5352-8.8594 4.5938-13.48 2.6797-4.6211-1.9141-7.6328-6.4219-7.6328-11.426 0.007812-6.8281 5.5391-12.359 12.367-12.367z"/>
 <path d="m383.77 313.5c7.5234 0 14.738-2.9883 20.059-8.3086 5.3203-5.3203 8.3086-12.535 8.3086-20.059 0-7.5234-2.9883-14.738-8.3086-20.059-5.3203-5.3203-12.535-8.3086-20.059-8.3086s-14.738 2.9883-20.059 8.3086c-5.3203 5.3203-8.3086 12.535-8.3086 20.059 0.007812 7.5195 3 14.73 8.3164 20.051 5.3203 5.3164 12.531 8.3086 20.051 8.3164zm0-40.734c5.0039 0 9.5117 3.0117 11.426 7.6328 1.9141 4.6211 0.85547 9.9414-2.6797 13.48-3.5391 3.5352-8.8594 4.5938-13.48 2.6797s-7.6328-6.4219-7.6328-11.426c0.007812-6.8281 5.5391-12.359 12.367-12.367z"/>
 <path d="m416.6 340.09h-65.68c-4.418 0-8 3.582-8 8s3.582 8 8 8h65.68c4.418 0 8-3.582 8-8s-3.582-8-8-8z"/>
 <path d="m416.6 368.72h-65.68c-4.418 0-8 3.582-8 8 0 4.418 3.582 8 8 8h65.68c4.418 0 8-3.582 8-8 0-4.418-3.582-8-8-8z"/>
</svg>
