<?xml version="1.0" encoding="UTF-8"?>
<svg width="512pt" height="512pt" version="1.1" viewBox="0 0 512 512" xmlns="http://www.w3.org/2000/svg">
 <path d="m388.12 138.6h-57.883c-5.918 0-10.719-4.8203-10.719-10.719v-57.883c0-2.4219 1.4414-4.6211 3.6992-5.5586 2.2383-0.92188 4.8203-0.42188 6.5586 1.3008l62.602 62.602c1.7188 1.7188 2.2188 4.3008 1.3008 6.5586-0.92188 2.2578-3.1211 3.6992-5.5586 3.6992zm-56.602-12h42.121l-42.121-42.121z"/>
 <path d="m380.84 448h-249.68c-7.3203 0-13.281-5.9609-13.281-13.281v-357.44c0-7.3203 5.9609-13.281 13.281-13.281h194.38c1.6016 0 3.1211 0.62109 4.2383 1.7617l62.602 62.602c1.1211 1.1211 1.7617 2.6406 1.7617 4.2383v302.12c-0.019531 7.3203-5.9609 13.281-13.301 13.281zm-249.68-372c-0.69922 0-1.2812 0.57812-1.2812 1.2812v357.44c0 0.69922 0.57812 1.2812 1.2812 1.2812h249.7c0.69922 0 1.2812-0.57812 1.2812-1.2812l-0.019531-299.62-59.102-59.102z"/>
 <path d="m293.12 138.6h-136.84c-3.3203 0-6-2.6797-6-6v-31.301c0-3.3203 2.6797-6 6-6h136.84c3.3203 0 6 2.6797 6 6v31.301c0 3.3203-2.6797 6-6 6zm-130.84-12h124.84v-19.301h-124.84z"/>
 <path d="m368.98 169.9h-167.46c-3.3203 0-6-2.6797-6-6 0-3.3203 2.6797-6 6-6h167.44c3.3203 0 6 2.6797 6 6 0.019531 3.3203-2.6797 6-5.9805 6z"/>
 <path d="m172.4 169.9h-26.922c-3.3203 0-6-2.6797-6-6 0-3.3203 2.6797-6 6-6h26.922c3.3203 0 6 2.6797 6 6 0 3.3203-2.6797 6-6 6z"/>
 <path d="m368.98 205.16h-40.281c-3.3203 0-6-2.6797-6-6 0-3.3203 2.6797-6 6-6h40.281c3.3203 0 6 2.6797 6 6 0 3.3203-2.6992 6-6 6z"/>
 <path d="m299.58 205.16h-154.1c-3.3203 0-6-2.6797-6-6 0-3.3203 2.6797-6 6-6h154.1c3.3203 0 6 2.6797 6 6 0 3.3203-2.6992 6-6 6z"/>
 <path d="m368.98 240.42h-137.86c-3.3203 0-6-2.6797-6-6 0-3.3203 2.6797-6 6-6h137.82c3.3203 0 6 2.6797 6 6 0.019531 3.3398-2.6602 6-5.9609 6z"/>
 <path d="m202.02 240.42h-56.539c-3.3203 0-6-2.6797-6-6 0-3.3203 2.6797-6 6-6h56.562c3.3203 0 6 2.6797 6 6-0.019531 3.3398-2.7188 6-6.0195 6z"/>
 <path d="m368.98 275.68h-58.742c-3.3203 0-6-2.6797-6-6 0-3.3203 2.6797-6 6-6h58.723c3.3203 0 6 2.6797 6 6 0.019531 3.3203-2.6797 6-5.9805 6z"/>
 <path d="m281.12 275.68h-135.64c-3.3203 0-6-2.6797-6-6 0-3.3203 2.6797-6 6-6h135.64c3.3203 0 6 2.6797 6 6 0 3.3203-2.6992 6-6 6z"/>
 <path d="m368.98 310.92h-167.46c-3.3203 0-6-2.6797-6-6s2.6797-6 6-6h167.44c3.3203 0 6 2.6797 6 6 0.019531 3.3203-2.6797 6-5.9805 6z"/>
 <path d="m172.4 310.92h-26.922c-3.3203 0-6-2.6797-6-6s2.6797-6 6-6h26.922c3.3203 0 6 2.6797 6 6s-2.6797 6-6 6z"/>
 <path d="m368.98 346.2h-25.738c-3.3203 0-6-2.6797-6-6 0-3.3203 2.6797-6 6-6h25.719c3.3203 0 6 2.6797 6 6 0.019531 3.3203-2.6797 6-5.9805 6z"/>
 <path d="m314.12 346.2h-168.64c-3.3203 0-6-2.6797-6-6 0-3.3203 2.6797-6 6-6h168.64c3.3203 0 6 2.6797 6 6 0 3.3203-2.6797 6-6 6z"/>
 <path d="m368.98 381.44h-152.4c-3.3203 0-6-2.6797-6-6 0-3.3203 2.6797-6 6-6h152.4c3.3203 0 6 2.6797 6 6 0 3.3398-2.6992 6-6 6z"/>
 <path d="m187.44 381.44h-41.961c-3.3203 0-6-2.6797-6-6 0-3.3203 2.6797-6 6-6h41.98c3.3203 0 6 2.6797 6 6-0.019531 3.3398-2.6797 6-6.0195 6z"/>
 <path d="m368.98 416.7h-73.277c-3.3203 0-6-2.6797-6-6s2.6797-6 6-6h73.277c3.3203 0 6 2.6797 6 6s-2.6992 6-6 6z"/>
 <path d="m266.58 416.7h-121.1c-3.3203 0-6-2.6797-6-6s2.6797-6 6-6h121.1c3.3203 0 6 2.6797 6 6s-2.6992 6-6 6z"/>
</svg>
